<?xml version="1.0" encoding="UTF-8"?>
<svg version="1.1" xmlns="http://www.w3.org/2000/svg" width="527" height="487">
<path d="M0 0 C10.48697118 1.29445619 19.32429364 5.13868096 28.8581543 9.46826172 C36.73695948 13.03674371 44.68318653 16.31843768 52.75 19.4375 C62.21025209 23.1078639 71.62770592 26.8601388 81 30.75 C82.16362061 31.23235107 83.32724121 31.71470215 84.52612305 32.21166992 C90.75562753 34.80069108 96.97633964 37.40962614 103.18984985 40.0368042 C106.49950749 41.43518512 109.81132921 42.82840015 113.12329102 44.22131348 C115.5252627 45.23429593 117.92374516 46.25524575 120.32226562 47.27636719 C121.79930698 47.8981956 123.27651253 48.51963422 124.75390625 49.140625 C125.42861465 49.43062378 126.10332306 49.72062256 126.79847717 50.01940918 C130.16319001 51.42345257 132.28164959 52 136 52 C137.02508092 52.97427363 138.022267 53.97821813 139 55 C141.388799 56.22150429 141.388799 56.22150429 144.14453125 57.27734375 C145.72681519 57.91494629 145.72681519 57.91494629 147.34106445 58.56542969 C148.48663818 59.01821289 149.63221191 59.47099609 150.8125 59.9375 C151.99996826 60.41477539 153.18743652 60.89205078 154.41088867 61.38378906 C160.25689188 63.73280869 166.11640773 66.04758066 171.97749329 68.35865784 C174.6176882 69.40064252 177.25626695 70.44669061 179.89486694 71.4927063 C181.75109771 72.22575158 183.61048667 72.95078394 185.4699707 73.67553711 C191.59204158 76.09463727 197.63514442 78.64656393 203.57421875 81.484375 C204.68756592 82.01256836 205.80091309 82.54076172 206.94799805 83.08496094 C212.63030267 86.6504355 215.59970483 91.70563593 218.63671875 97.55078125 C219.11875008 98.46911743 219.11875008 98.46911743 219.61051941 99.40600586 C220.29182456 100.70474348 220.97016233 102.00504161 221.64569092 103.30679321 C223.39901163 106.68231308 225.17802586 110.04421447 226.95703125 113.40625 C227.30531982 114.06522781 227.6536084 114.72420563 228.01245117 115.40315247 C230.85779495 120.77015779 233.80052544 126.07283654 236.875 131.3125 C237.27291748 131.99803955 237.67083496 132.6835791 238.08081055 133.38989258 C239.96522368 136.76795129 239.96522368 136.76795129 243 139 C243.33449068 140.66643478 243.66759929 142.33314708 244 144 C244.87895638 145.80341128 245.83117947 147.57212668 246.8359375 149.30859375 C247.69058594 150.80036133 247.69058594 150.80036133 248.5625 152.32226562 C249.160625 153.35029297 249.75875 154.37832031 250.375 155.4375 C261.87555539 175.38769926 261.87555539 175.38769926 260.5625 182.3046875 C258.7158481 188.70501512 255.91660854 191.32570034 250.08081055 194.67578125 C249.02676025 195.21589844 247.97270996 195.75601563 246.88671875 196.3125 C245.1377832 197.21355469 245.1377832 197.21355469 243.35351562 198.1328125 C242.13155883 198.75530338 240.9095533 199.3776986 239.6875 200 C238.47695374 200.62189038 237.26666501 201.24428231 236.05664062 201.8671875 C232.70858308 203.58641044 229.35473751 205.29386127 226 207 C225.15260254 207.43828125 224.30520508 207.8765625 223.43212891 208.328125 C218.22361906 211 218.22361906 211 216 211 C216.00368717 211.81299088 216.00737434 212.62598177 216.01117325 213.46360874 C216.09954022 233.25249586 216.1657174 253.04134894 216.20724869 272.83039188 C216.22786715 282.40026501 216.25597409 291.97000637 216.30175781 301.53979492 C216.34164747 309.88157774 216.36743802 318.22326512 216.37635398 326.56514066 C216.38156513 330.98145993 216.39379826 335.39750617 216.42292023 339.81373787 C216.45012302 343.97273225 216.45843523 348.13134182 216.45243073 352.29041672 C216.45352879 353.81458949 216.4614539 355.33877548 216.4768219 356.86287117 C216.61392338 371.16433785 216.61392338 371.16433785 212 377 C210.01635742 378.79833984 210.01635742 378.79833984 207.91796875 380.0859375 C207.12825684 380.57288086 206.33854492 381.05982422 205.52490234 381.56152344 C201.17948062 384.03717851 196.77119121 386.3605481 192.3125 388.625 C184.4168206 392.68476052 176.58597805 396.8359932 168.8125 401.125 C161.06571704 405.38710906 153.24253702 409.4413168 145.31640625 413.35864258 C138.9895745 416.48895003 132.73331379 419.73621614 126.49536133 423.03955078 C119.84728547 426.55948108 113.17663994 430.03458279 106.5 433.5 C99.22334238 437.28055787 91.94680879 441.06120665 84.6875 444.875 C83.96248291 445.25575684 83.23746582 445.63651367 82.49047852 446.02880859 C77.53489514 448.64068507 72.60055439 451.29090158 67.671875 453.953125 C66.38194826 454.64865765 65.09199049 455.34413276 63.80200195 456.03955078 C61.25366906 457.41339971 58.70847101 458.79284492 56.16479492 460.17529297 C54.42613159 461.11332764 54.42613159 461.11332764 52.65234375 462.0703125 C51.08987915 462.91746826 51.08987915 462.91746826 49.49584961 463.78173828 C47 465 47 465 45 465 C44.67 465.66 44.34 466.32 44 467 C42.33276367 467.95800781 42.33276367 467.95800781 40.16796875 468.953125 C39.37503418 469.32252197 38.58209961 469.69191895 37.76513672 470.07250977 C36.9145166 470.46108154 36.06389648 470.84965332 35.1875 471.25 C28.21072858 474.43344496 28.21072858 474.43344496 21.38671875 477.92578125 C20.39285156 478.46589844 19.39898437 479.00601562 18.375 479.5625 C17.53710938 480.03816406 16.69921875 480.51382812 15.8359375 481.00390625 C8.66358465 483.52312109 3.90102453 482.22369936 -2.7734375 479.0703125 C-5.32477728 477.78753171 -7.85014703 476.45897189 -10.375 475.125 C-11.73121925 474.4253759 -13.08824342 473.72731006 -14.44604492 473.03076172 C-17.73956399 471.33570849 -21.02206983 469.62071695 -24.29962158 467.89501953 C-26.53930257 466.71613005 -28.78350234 465.545947 -31.02734375 464.375 C-33.92093868 462.8592766 -36.80726719 461.33049954 -39.69140625 459.796875 C-48.38737738 455.19117279 -57.15945136 450.72926543 -65.9152832 446.23876953 C-73.84006607 442.16990371 -81.7249248 438.03670701 -89.56982422 433.81567383 C-93.14601408 431.92271126 -96.74952949 430.10905914 -100.375 428.3125 C-108.598002 424.23447877 -116.73588189 419.99824654 -124.86865234 415.7434082 C-129.93801241 413.09522899 -135.01926169 410.4799585 -140.140625 407.93359375 C-146.31956409 404.85926372 -152.40660481 401.62566984 -158.48046875 398.34960938 C-159.27066406 397.92873047 -160.06085938 397.50785156 -160.875 397.07421875 C-161.57367188 396.69869873 -162.27234375 396.32317871 -162.9921875 395.9362793 C-164.98417202 395.00738087 -166.85490317 394.45601344 -169 394 C-169 393.34 -169 392.68 -169 392 C-170.2828186 391.60603027 -170.2828186 391.60603027 -171.59155273 391.20410156 C-177.04451369 389.27773501 -182.04893695 386.48406312 -187.14086914 383.77001953 C-189.05424618 382.75438121 -190.97688091 381.75800192 -192.90039062 380.76171875 C-194.13343068 380.1079354 -195.36587338 379.45302392 -196.59765625 378.796875 C-197.70633057 378.21260742 -198.81500488 377.62833984 -199.95727539 377.02636719 C-203.93839522 374.37505574 -206.83240928 371.33518144 -209 367 C-209.1061254 364.93510724 -209.14667684 362.86674973 -209.15821838 360.79916382 C-209.16562535 359.83492396 -209.16562535 359.83492396 -209.17318195 358.85120451 C-209.18859372 356.6877523 -209.19692747 354.52432984 -209.20532227 352.36083984 C-209.21489791 350.8137638 -209.2249078 349.26669039 -209.23532104 347.71961975 C-209.26241024 343.51121153 -209.28339803 339.30279204 -209.30332303 335.09434462 C-209.32515787 330.69940089 -209.35255877 326.30449203 -209.37937927 321.90957642 C-209.42934007 313.58336817 -209.47426631 305.2571406 -209.51740164 296.93089449 C-209.5667451 287.45337546 -209.62167393 277.9758914 -209.67708123 268.49840617 C-209.79095325 248.99896991 -209.8977809 229.49950065 -210 210 C-210.66 210 -211.32 210 -212 210 C-212 209.34 -212 208.68 -212 208 C-212.87543457 207.72381836 -213.75086914 207.44763672 -214.65283203 207.16308594 C-219.95224074 205.32162838 -224.86219943 202.75334742 -229.875 200.25 C-230.92558594 199.73695313 -231.97617188 199.22390625 -233.05859375 198.6953125 C-249.95277255 190.27993933 -249.95277255 190.27993933 -253.5234375 182.22265625 C-254.28433418 178.67388401 -253.51173655 175.65683828 -252.578125 172.19921875 C-251.87288019 169.89541895 -251.87288019 169.89541895 -252 167 C-250.91840112 165.37760167 -249.81601309 163.76522234 -248.61328125 162.23046875 C-246.55830919 159.38933304 -244.88118011 156.37584507 -243.1875 153.3125 C-242.3829255 151.86842662 -241.57822979 150.42442077 -240.7734375 148.98046875 C-240.11166504 147.7901001 -240.11166504 147.7901001 -239.43652344 146.57568359 C-237.89554885 143.8127193 -236.3432788 141.05631749 -234.7890625 138.30078125 C-229.84522468 129.52370849 -224.91080348 120.74493053 -220.1640625 111.859375 C-219.85017075 111.27239838 -219.53627899 110.68542175 -219.21287537 110.08065796 C-217.70309911 107.25448377 -216.20027095 104.42489711 -214.70629883 101.59033203 C-213.17214477 98.70569506 -211.6066929 95.84479469 -210 93 C-209.60570801 92.30165039 -209.21141602 91.60330078 -208.80517578 90.88378906 C-202.4919826 80.88498331 -187.99154643 77.51783104 -177.5625 73.25 C-175.74042553 72.49983801 -173.91848804 71.74934322 -172.09667969 70.99853516 C-154.95472902 63.94403855 -137.77056377 56.99281416 -120.57949829 50.05905151 C-112.73174791 46.8934151 -104.88958315 43.71410386 -97.0484314 40.53216553 C-90.89710802 38.03644114 -84.74447893 35.54393567 -78.59216309 33.05065918 C-75.81816693 31.92629917 -73.04433354 30.80153819 -70.27050781 29.67675781 C-65.18362097 27.61426137 -60.09613917 25.55323851 -55.00820923 23.49331665 C-52.97242854 22.66903801 -50.93676232 21.84447659 -48.9012146 21.0196228 C-39.22868207 17.1011906 -29.55488282 13.19019329 -19.82421875 9.41796875 C-19.14767746 9.15523163 -18.47113617 8.89249451 -17.77409363 8.62179565 C-14.73732462 7.4440201 -11.69752655 6.27534557 -8.65209961 5.12011719 C-7.63510986 4.72856445 -6.61812012 4.33701172 -5.5703125 3.93359375 C-4.70164551 3.60415771 -3.83297852 3.27472168 -2.93798828 2.93530273 C-0.82475709 2.15880102 -0.82475709 2.15880102 0 0 Z M-2.34375 31.1328125 C-4.03189819 31.83591553 -4.03189819 31.83591553 -5.75415039 32.55322266 C-6.36147003 32.80807434 -6.96878967 33.06292603 -7.59451294 33.32550049 C-9.53881121 34.14128431 -11.48483846 34.95280766 -13.43139648 35.76318359 C-15.50109312 36.62487609 -17.57067767 37.48682805 -19.63975525 38.3500061 C-27.10474825 41.4641779 -34.58259361 44.54685697 -42.0625 47.625 C-42.7496106 47.90791901 -43.43672119 48.19083801 -44.14465332 48.48233032 C-60.55923805 55.24070552 -76.99044127 61.95850025 -93.421875 68.67578125 C-94.28404633 69.02827438 -95.14621765 69.38076752 -96.03451538 69.74394226 C-100.61716722 71.61744616 -105.20012247 73.49020353 -109.78344727 75.36206055 C-119.3492344 79.27010545 -128.90792896 83.1918334 -138.4375 87.1875 C-147.25936604 90.87572966 -156.10442544 94.4930908 -165 98 C-161.27486148 101.17326615 -157.06071641 102.9235332 -152.625 104.875 C-151.75560791 105.26228271 -150.88621582 105.64956543 -149.99047852 106.04858398 C-143.5631723 108.90003746 -137.10662272 111.68268764 -130.64868164 114.46386719 C-129.41161465 114.99672983 -128.1745542 115.52960766 -126.9375 116.0625 C-126.31310028 116.33130981 -125.68870056 116.60011963 -125.04537964 116.8770752 C-114.35931194 121.48321212 -103.7605195 126.26551263 -93.1875 131.125 C-80.20479923 137.09192749 -67.17382546 142.92824316 -54.08056641 148.64941406 C-48.44097145 151.12193263 -42.81423954 153.6233948 -37.1875 156.125 C-35.49898926 156.87559692 -35.49898926 156.87559692 -33.77636719 157.64135742 C-25.95809041 161.12052485 -18.14931376 164.62041144 -10.35229492 168.14697266 C-8.90067615 168.80270553 -7.44678334 169.45343703 -5.99023438 170.09814453 C-4.69657987 170.68435156 -3.41519992 171.29872971 -2.15039062 171.94482422 C2.37515246 174.16615766 5.12783503 173.9759136 10 173 C13.27901782 171.84652948 13.27901782 171.84652948 16.51953125 170.34765625 C17.70611328 169.81849609 18.89269531 169.28933594 20.11523438 168.74414062 C20.72197998 168.46803955 21.32872559 168.19193848 21.95385742 167.9074707 C23.82084166 167.05870774 25.69391354 166.22471366 27.56835938 165.39257812 C33.73193983 162.87629919 33.73193983 162.87629919 39 159 C38.67 158.34 38.34 157.68 38 157 C38.66 157 39.32 157 40 157 C40.33 157.66 40.66 158.32 41 159 C41.72364746 158.67837891 42.44729492 158.35675781 43.19287109 158.02539062 C45.3568455 157.06362422 47.52082727 156.10187438 49.68481445 155.14013672 C52.16519102 154.03775636 54.64548884 152.93519907 57.12573242 151.83251953 C67.77578126 147.09795356 67.77578126 147.09795356 73.02734375 144.7734375 C77.35529683 142.85728126 81.67861816 140.93092511 86 139 C87.41611572 138.36868164 87.41611572 138.36868164 88.86083984 137.72460938 C91.90952828 136.3631443 94.95507539 134.99485947 98 133.625 C98.96333252 133.19558105 99.92666504 132.76616211 100.91918945 132.32373047 C101.81210693 131.92041504 102.70502441 131.51709961 103.625 131.1015625 C104.42164063 130.74400879 105.21828125 130.38645508 106.0390625 130.01806641 C108.15799156 129.04317647 108.15799156 129.04317647 110 127 C111.66247542 126.64635559 113.32983221 126.31532277 115 126 C116.53477076 125.37377911 118.04866433 124.69427545 119.5390625 123.96875 C120.36664063 123.57042969 121.19421875 123.17210938 122.046875 122.76171875 C123.32304688 122.13716797 123.32304688 122.13716797 124.625 121.5 C126.32481064 120.67561736 128.02530334 119.85263919 129.7265625 119.03125 C130.47502441 118.66580078 131.22348633 118.30035156 131.99462891 117.92382812 C134 117 134 117 137 116 C139.14839909 115.06949009 141.28924933 114.12150634 143.42578125 113.1640625 C144.05099167 112.88404388 144.67620209 112.60402527 145.32035828 112.31552124 C146.64284171 111.72276731 147.9650033 111.12929485 149.28686523 110.53515625 C151.29385227 109.63337878 153.30211511 108.73449187 155.31054688 107.8359375 C156.59903644 107.25798661 157.88745033 106.67986695 159.17578125 106.1015625 C160.34020752 105.57900879 161.50463379 105.05645508 162.7043457 104.51806641 C165.83769706 103.07476107 168.9239662 101.56121628 172 100 C172 99.34 172 98.68 172 98 C171.30028076 97.72325439 170.60056152 97.44650879 169.87963867 97.16137695 C166.64778978 95.88126534 163.41764448 94.59690601 160.1875 93.3125 C158.53717773 92.65991211 158.53717773 92.65991211 156.85351562 91.99414062 C151.69994701 89.94183454 146.59014638 87.84806715 141.5546875 85.51953125 C135.73234358 82.83363325 129.79674951 80.47135125 123.83209229 78.12179565 C111.95501337 73.44018104 100.15990221 68.59633866 88.42553711 63.56591797 C80.12590842 60.01460542 71.72988225 56.88625807 63.22265625 53.8671875 C61 53 61 53 60 52 C57.98189338 51.11191259 55.94886852 50.25767456 53.91015625 49.41796875 C53.29160263 49.16251785 52.67304901 48.90706696 52.03575134 48.64387512 C50.04562225 47.82274516 48.05406136 47.00514912 46.0625 46.1875 C44.75446776 45.64800347 43.44652402 45.10829233 42.13867188 44.56835938 C36.63399751 42.29865458 31.12528659 40.04158826 25.58984375 37.84765625 C20.45408457 35.80388256 15.41417747 33.56245125 10.375 31.29296875 C4.82939197 28.82943903 3.17406315 28.82292562 -2.34375 31.1328125 Z M-192 116 C-202.8759541 134.88092653 -213.4369965 153.94278402 -224 173 C-221.49926387 175.85980529 -218.77696091 177.29123454 -215.390625 178.96875 C-214.25375244 179.53489014 -213.11687988 180.10103027 -211.94555664 180.68432617 C-210.71379905 181.28974333 -209.48194473 181.89496372 -208.25 182.5 C-206.99127046 183.12373239 -205.73272721 183.74784086 -204.47436523 184.37231445 C-195.42657384 188.85171707 -186.33356126 193.23691543 -177.19824219 197.53515625 C-172.99476255 199.5205181 -168.96757027 201.56826338 -165 204 C-164.01 204.33 -163.02 204.66 -162 205 C-159.42410842 206.33316246 -156.86572613 207.68724924 -154.3125 209.0625 C-148.80240261 212.00319418 -143.27990938 214.90626829 -137.6875 217.6875 C-136.74801514 218.15482544 -136.74801514 218.15482544 -135.78955078 218.6315918 C-134.37296919 219.33513465 -132.95612047 220.03813981 -131.5390625 220.74072266 C-126.08527554 223.44559123 -120.63507825 226.15765052 -115.1875 228.875 C-114.57522552 229.18037689 -113.96295105 229.48575378 -113.3321228 229.80038452 C-105.28229845 233.81886639 -97.28317058 237.91791181 -89.34326172 242.14941406 C-77.68335183 248.33173591 -65.81990918 254.13138266 -54 260 C-51.31772024 256.77823713 -49.08018907 253.6003467 -47.07421875 249.921875 C-46.5320874 248.93767578 -45.98995605 247.95347656 -45.43139648 246.93945312 C-44.85591064 245.88693359 -44.2804248 244.83441406 -43.6875 243.75 C-38.02336322 233.50125671 -32.14127738 223.42361094 -26.06323242 213.41308594 C-19.42922973 204.23692001 -19.42922973 204.23692001 -16 194 C-17.03125 193.649375 -18.0625 193.29875 -19.125 192.9375 C-22.8736697 191.53255816 -26.37825038 189.83009506 -29.9375 188 C-36.33177039 184.73003209 -42.85552656 181.80841032 -49.4375 178.9375 C-59.07343895 174.73445799 -68.67396694 170.46220333 -78.25 166.125 C-80.88534715 164.93213804 -83.52079292 163.73949405 -86.15625 162.546875 C-87.135653 162.10359108 -87.135653 162.10359108 -88.13484192 161.65135193 C-105.27061337 153.89847914 -122.44077913 146.22090939 -139.64355469 138.61791992 C-145.94401898 135.82703866 -152.21905512 132.9870394 -158.4765625 130.1015625 C-160.61786232 129.11852348 -162.75948088 128.13618205 -164.90118408 127.15402222 C-166.2927761 126.5131825 -167.68273704 125.86878811 -169.07098389 125.22073364 C-171.00179968 124.3194973 -172.93769713 123.43015439 -174.875 122.54296875 C-175.98617187 122.02758545 -177.09734375 121.51220215 -178.2421875 120.98120117 C-181.03372887 119.66905615 -181.03372887 119.66905615 -184 121 C-184 120.34 -184 119.68 -184 119 C-187.80427492 116.7986134 -187.80427492 116.7986134 -192 116 Z M187.375 120.5625 C178.12331796 125.03268366 168.79432216 129.31840193 159.4375 133.5625 C158.34965714 134.05639725 158.34965714 134.05639725 157.23983765 134.56027222 C148.74715239 138.41511899 140.24188013 142.23797084 131.70654297 145.99755859 C122.26548634 150.17979095 112.92474158 154.58602697 103.56640625 158.94921875 C97.72731616 161.66932374 91.8701117 164.34756815 86 167 C86 167.66 86 168.32 86 169 C84.47427368 169.15843384 84.47427368 169.15843384 82.91772461 169.32006836 C78.92843161 170.01242089 75.96401056 171.14904679 72.31640625 172.87890625 C71.70281754 173.16699661 71.08922882 173.45508698 70.45704651 173.75190735 C68.48770516 174.67960357 66.52509394 175.62062519 64.5625 176.5625 C63.21302787 177.20196813 61.86325458 177.84080109 60.51318359 178.47900391 C51.27829279 182.85673441 42.08844826 187.32511128 33 192 C33 192.66 33 193.32 33 194 C32.34 193.34 31.68 192.68 31 192 C28.69 193.32 26.38 194.64 24 196 C25.37636429 199.75395122 27.1007588 202.93674107 29.2734375 206.2890625 C29.92755615 207.30379639 30.5816748 208.31853027 31.25561523 209.36401367 C31.95501221 210.44013916 32.65440918 211.51626465 33.375 212.625 C34.46699926 214.31565001 35.5574549 216.00728918 36.64787292 217.69895935 C37.38062076 218.83548054 38.11386757 219.97168018 38.84761047 221.1075592 C42.07935095 226.11228451 45.26555401 231.14474467 48.4375 236.1875 C53.24576279 243.82152937 58.10440378 251.42171595 63 259 C63.66 258.67 64.32 258.34 65 258 C65.62535645 257.85030762 66.25071289 257.70061523 66.89501953 257.54638672 C69.01264471 256.99671783 70.7331292 256.24777057 72.6796875 255.2578125 C73.36160156 254.91363281 74.04351562 254.56945312 74.74609375 254.21484375 C75.79990234 253.67537109 75.79990234 253.67537109 76.875 253.125 C77.56980469 252.77308594 78.26460938 252.42117187 78.98046875 252.05859375 C80.34939432 251.36510792 81.71757568 250.67015084 83.08496094 249.97363281 C85.71662406 248.63565824 88.35792625 247.31727324 91 246 C93.41098152 244.79694458 95.81789565 243.58659092 98.22265625 242.37109375 C106.50980009 238.19313307 114.84337156 234.13732583 123.26391602 230.23413086 C132.20603508 226.48141693 132.20603508 226.48141693 140 221 C141.29668661 220.39592231 142.60597656 219.81881489 143.92041016 219.25439453 C149.12176411 216.97318442 154.19655517 214.47383711 159.2734375 211.9296875 C160.23665924 211.44855499 161.19988098 210.96742249 162.19229126 210.47171021 C164.22487717 209.45575587 166.25696354 208.43880155 168.28857422 207.42089844 C171.33023227 205.89742282 174.37396908 204.37816543 177.41796875 202.859375 C183.28864972 199.92588563 189.14833199 196.97122599 195 194 C195.93090454 193.52792114 196.86180908 193.05584229 197.82092285 192.56945801 C200.46113141 191.22503864 203.09489499 189.86886122 205.7265625 188.5078125 C206.50816742 188.11020721 207.28977234 187.71260193 208.09506226 187.302948 C211.98496538 185.27270463 215.08715322 183.37514251 218 180 C218.66 180.33 219.32 180.66 220 181 C222.70379866 180.00409891 222.70379866 180.00409891 225.625 178.5625 C226.62789062 178.08941406 227.63078125 177.61632812 228.6640625 177.12890625 C229.43492187 176.75636719 230.20578125 176.38382813 231 176 C227.85026423 169.27317738 224.21782762 162.9306628 220.36499023 156.5925293 C218.19827394 153.01984294 216.10117782 149.43313722 214.125 145.75 C211.25056624 140.4221763 208.30133059 135.13931785 205.3125 129.875 C204.83635254 129.0200293 204.36020508 128.16505859 203.86962891 127.28417969 C203.41378418 126.48657227 202.95793945 125.68896484 202.48828125 124.8671875 C202.08134033 124.14644043 201.67439941 123.42569336 201.25512695 122.68310547 C200.01690142 120.68815374 200.01690142 120.68815374 197 120 C197.33 119.01 197.66 118.02 198 117 C193.91513024 117 190.9646945 118.79394877 187.375 120.5625 Z M-183 224 C-183 267.56 -183 311.12 -183 356 C-177.39 358.97 -171.78 361.94 -166 365 C-163.751875 366.216875 -161.50375 367.43375 -159.1875 368.6875 C-151.95709271 372.57873144 -144.60053652 376.21753053 -137.25 379.875 C-128.71476105 384.12211951 -120.21147673 388.41293037 -111.79394531 392.89013672 C-103.40459127 397.34152156 -94.94956967 401.6644316 -86.5 406 C-68.29986441 415.34085782 -68.29986441 415.34085782 -61.85774231 418.75492859 C-52.31317162 423.81020809 -42.72845519 428.78684047 -33.1293335 433.73757935 C-31.42711525 434.61621215 -29.72564915 435.49630376 -28.02496338 436.37789917 C-25.62419726 437.62191001 -23.22067616 438.86043363 -20.81640625 440.09765625 C-20.0880809 440.47632843 -19.35975555 440.85500061 -18.60935974 441.24514771 C-15.37581476 442.90230868 -12.54700105 444.11324974 -9 445 C-9 375.7 -9 306.4 -9 235 C-11.50992565 238.34656753 -13.4520906 241.4816394 -15.44140625 245.13671875 C-16.10959407 246.35881905 -16.77780796 247.58090509 -17.44604492 248.80297852 C-17.79186615 249.43809357 -18.13768738 250.07320862 -18.49398804 250.72756958 C-20.28562497 254.01390033 -22.09201339 257.29209305 -23.8984375 260.5703125 C-24.2535289 261.21478836 -24.6086203 261.85926422 -24.97447205 262.52326965 C-27.84254275 267.72392304 -30.72349312 272.91572004 -33.6875 278.0625 C-34.06011963 278.72660889 -34.43273926 279.39071777 -34.81665039 280.07495117 C-37.85697548 285.28921621 -40.78867227 288.35185222 -46.625 290.0625 C-52.33874904 290.54946725 -57.08629934 287.5885345 -62 285 C-65.93906699 282.90600894 -65.93906699 282.90600894 -70.125 281.5 C-72 281 -72 281 -73.6875 279.6875 C-77.95679272 276.57207018 -83.00524402 274.66491866 -88 273 C-89.33684226 272.00469575 -90.66971366 271.00404981 -92 270 C-93.73061131 269.01819292 -95.48132336 268.07133564 -97.24609375 267.15234375 C-98.24833984 266.62962891 -99.25058594 266.10691406 -100.28320312 265.56835938 C-101.32412109 265.03017578 -102.36503906 264.49199219 -103.4375 263.9375 C-104.47455078 263.39544922 -105.51160156 262.85339844 -106.58007812 262.29492188 C-112.08940844 259.40631469 -112.08940844 259.40631469 -117.77368164 256.89282227 C-120 256 -120 256 -121 255 C-122.89647981 253.97277923 -124.80679237 252.97106643 -126.72265625 251.98046875 C-127.30156113 251.68062576 -127.880466 251.38078278 -128.47691345 251.07185364 C-129.70802904 250.43463288 -130.93961608 249.7983223 -132.17163086 249.1628418 C-134.0314125 248.20353545 -135.88986146 247.24169084 -137.74804688 246.27929688 C-144.93496365 242.55906158 -144.93496365 242.55906158 -152.171875 238.9375 C-158.27688945 235.90731533 -164.19082092 232.49676489 -170.13085938 229.15820312 C-171.07123047 228.63806641 -172.01160156 228.11792969 -172.98046875 227.58203125 C-173.82504639 227.10999268 -174.66962402 226.6379541 -175.53979492 226.15161133 C-178.32574435 224.72850177 -178.32574435 224.72850177 -183 224 Z M156.82791138 240.88623047 C155.92309525 241.35826904 155.92309525 241.35826904 155 241.83984375 C154.380112 242.1632373 153.760224 242.48663086 153.12155151 242.81982422 C147.84229143 245.56989505 142.54823717 248.29060239 137.25 251.00390625 C136.40445557 251.43692551 135.55891113 251.86994476 134.68774414 252.31608582 C131.31236777 254.04404565 127.93664889 255.77133108 124.56005859 257.49691772 C113.36705548 263.21750991 102.21904854 269.01718232 91.10449219 274.88873291 C86.24153917 277.45659212 81.37164396 280.01117182 76.5 282.5625 C75.51386719 283.08134766 74.52773438 283.60019531 73.51171875 284.13476562 C72.56941406 284.62783203 71.62710938 285.12089844 70.65625 285.62890625 C69.82931641 286.06275635 69.00238281 286.49660645 68.15039062 286.94360352 C63.94720869 289.00845005 60.65743232 289.39469765 56 289 C50.49448597 286.4766394 47.83321823 282.26227614 44.61328125 277.33984375 C43.12945225 275.01494831 43.12945225 275.01494831 41.35546875 273.44140625 C40 272 40 272 39.54980469 270.14526367 C38.95881992 267.8393209 38.1003454 266.25206712 36.84765625 264.234375 C36.40534668 263.51620605 35.96303711 262.79803711 35.50732422 262.05810547 C34.79213623 260.91559326 34.79213623 260.91559326 34.0625 259.75 C33.57539551 258.96383301 33.08829102 258.17766602 32.58642578 257.36767578 C31.57083459 255.73033423 30.55289526 254.09444702 29.53271484 252.45996094 C28.04025818 250.06461317 26.55962224 247.66235193 25.08203125 245.2578125 C24.18004735 243.7966528 23.27771883 242.33570577 22.375 240.875 C21.73703491 239.83617676 21.73703491 239.83617676 21.08618164 238.77636719 C20.08487112 237.16686085 19.0464911 235.58050302 18 234 C17.67 234 17.34 234 17 234 C17 235.20124512 17 236.40249023 17 237.64013672 C17 276 17 276 16.96826172 279.94311523 C16.93228431 284.46310697 16.90916548 288.98308132 16.89013672 293.50317383 C16.8800547 295.45762273 16.86638927 297.41205646 16.84912109 299.36645508 C16.82490064 302.18053899 16.81352586 304.99442475 16.8046875 307.80859375 C16.78920364 309.12119423 16.78920364 309.12119423 16.77340698 310.46031189 C16.77325592 311.27448074 16.77310486 312.0886496 16.77294922 312.92749023 C16.768508 313.64315659 16.76406677 314.35882294 16.75949097 315.09617615 C16.89790846 317.3300755 16.89790846 317.3300755 19 320 C18.34 320 17.68 320 17 320 C17 321.32 17 322.64 17 324 C17 427 17 427 16.96484375 430.421875 C16.95549287 431.86458182 16.94638994 433.30729026 16.9375 434.75 C16.92912109 435.46671875 16.92074219 436.1834375 16.91210938 436.921875 C16.8945244 440.748365 17.07044384 444.28177538 18 448 C23.09822932 447.48929447 26.83927016 446.36461968 31.359375 443.97265625 C31.94106949 443.66851807 32.52276398 443.36437988 33.12208557 443.05102539 C35.00332242 442.06449969 36.87649738 441.06362306 38.75 440.0625 C40.06743244 439.36872188 41.38539037 438.67594076 42.70385742 437.98413086 C46.47578381 436.00160921 50.23860537 434.00243125 54 432 C57.10300634 430.35196761 60.20699202 428.70581341 63.3125 427.0625 C64.0230957 426.68552979 64.73369141 426.30855957 65.46582031 425.92016602 C73.94545395 421.45168696 82.54182516 417.21390471 91.12240601 412.94378662 C99.91211032 408.56833259 108.65851209 404.13323068 117.32421875 399.515625 C123.1677466 396.41092416 129.07359217 393.44301825 135 390.5 C145.08689766 385.48757837 155.04246102 380.26785933 165 375 C173.25 370.71 181.5 366.42 190 362 C190 316.79 190 271.58 190 225 C180.33028505 225 165.16503111 236.53575547 156.82791138 240.88623047 Z " fill="#F2F3F2" transform="translate(260,3)"/>
<path d="M0 0 C3.70267991 3.61852809 4.50911113 5.1618705 5.3125 10.25 C5.06873934 19.009133 -2.89652372 26.62412932 -8.16796875 33.0546875 C-10.79082069 36.37138958 -13.17021279 39.82851578 -15.55126953 43.32128906 C-18.78260632 48.04828866 -22.12999439 52.68361874 -25.5 57.3125 C-30.60254684 64.33615498 -35.55069556 71.45175283 -40.43115234 78.63110352 C-44.60166484 84.76053138 -48.84070309 90.83771049 -53.1394043 96.87792969 C-55.24633398 99.83902005 -57.32758592 102.80387888 -59.34375 105.828125 C-63.40431082 111.91896623 -66.93341813 115.06049758 -73.5625 118.3125 C-78.39002271 118.80343451 -80.29480557 117.38047444 -84.09375 114.55078125 C-87.16536678 111.89650371 -90.01218962 109.09248208 -92.25 105.6875 C-92.25 105.0275 -92.25 104.3675 -92.25 103.6875 C-92.91 103.6875 -93.57 103.6875 -94.25 103.6875 C-95.83533702 101.97417246 -97.34541215 100.19060953 -98.8125 98.375 C-100.02099609 96.89580078 -100.02099609 96.89580078 -101.25390625 95.38671875 C-103.25 92.6875 -103.25 92.6875 -104.25 89.6875 C-104.91 89.6875 -105.57 89.6875 -106.25 89.6875 C-110.71660783 85.30284828 -115.52589084 80.35040846 -116.625 74 C-116.66266324 69.80431541 -115.33625897 66.73328461 -112.90234375 63.35546875 C-109.15365678 59.5713332 -105.03599649 58.81979604 -99.875 58.4375 C-90.84783084 61.55031695 -84.74339664 70.19599004 -79.0625 77.5 C-77.43571065 79.76272716 -77.43571065 79.76272716 -75.25 80.6875 C-74.93289063 80.12804687 -74.61578125 79.56859375 -74.2890625 78.9921875 C-71.01344167 73.36391083 -67.4394654 68.04142837 -63.62084961 62.76806641 C-59.48199764 57.04452225 -55.45834085 51.24437441 -51.4375 45.4375 C-44.95155999 36.08883708 -38.38255477 26.80816848 -31.66357422 17.62548828 C-30.3300769 15.79728418 -29.00959841 13.96034732 -27.69140625 12.12109375 C-18.25573511 -0.84698715 -18.25573511 -0.84698715 -11.6875 -3.25 C-6.78595252 -3.3756807 -4.07533829 -2.89975993 0 0 Z " fill="#F1F1F1" transform="translate(421.25,275.3125)"/>
<path d="M0 0 C0.33 0 0.66 0 1 0 C1.02333044 27.99797547 1.04097989 55.9959495 1.05181217 83.99393272 C1.05697482 96.99302876 1.06401693 109.99211877 1.07543945 122.99121094 C1.08538724 134.31738655 1.09185366 145.64355779 1.09408849 156.96973765 C1.09539544 162.97030275 1.09848028 168.97085536 1.10573006 174.97141647 C1.11249175 180.61344042 1.11461665 186.25544667 1.11310768 191.89747429 C1.11338394 193.97360899 1.11538818 196.04974426 1.11920547 198.12587547 C1.12414503 200.94969227 1.12299729 203.77344132 1.12025452 206.59725952 C1.12316736 207.42798772 1.1260802 208.25871592 1.12908131 209.11461771 C1.11412121 214.77175758 1.11412121 214.77175758 0 217 C-4.62675657 215.6077541 -8.64686231 213.70479016 -12.875 211.375 C-14.02742187 210.74335938 -15.17984375 210.11171875 -16.3671875 209.4609375 C-17.23601562 208.97882813 -18.10484375 208.49671875 -19 208 C-18.34 207.67 -17.68 207.34 -17 207 C-14.79831202 207.87488128 -12.63576495 208.84964382 -10.5 209.875 C-8.75203125 210.70644531 -8.75203125 210.70644531 -6.96875 211.5546875 C-2.05128205 213.94871795 -2.05128205 213.94871795 -1 215 C-1.33 146.36 -1.66 77.72 -2 7 C-4.64 11.62 -7.28 16.24 -10 21 C-10.33 20.34 -10.66 19.68 -11 19 C-10.21142578 17.13647461 -10.21142578 17.13647461 -8.9453125 14.90234375 C-8.49542969 14.10119141 -8.04554688 13.30003906 -7.58203125 12.47460938 C-6.86080078 11.21874023 -6.86080078 11.21874023 -6.125 9.9375 C-5.65191406 9.09638672 -5.17882812 8.25527344 -4.69140625 7.38867188 C-1.17845547 1.17845547 -1.17845547 1.17845547 0 0 Z " fill="#B2B2B3" transform="translate(252,233)"/>
<path d="M0 0 C5 1 5 1 7 3 C5.35 2.67 3.7 2.34 2 2 C2.33 45.89 2.66 89.78 3 135 C2.01 134.67 1.02 134.34 0 134 C0 89.78 0 45.56 0 0 Z " fill="#B1B1B2" transform="translate(75,225)"/>
<path d="M0 0 C0 46.2 0 92.4 0 140 C-2.24723885 136.62914173 -2.24793851 135.53138159 -2.24050903 131.59004211 C-2.24325836 130.46683563 -2.24600769 129.34362915 -2.24884033 128.18638611 C-2.24164978 126.95352371 -2.23445923 125.72066132 -2.22705078 124.45043945 C-2.22734283 123.15277649 -2.22763489 121.85511353 -2.22793579 120.51812744 C-2.22851028 116.95844603 -2.21674046 113.39889904 -2.20278788 109.8392489 C-2.19029654 106.1196614 -2.18911128 102.40007093 -2.18673706 98.6804657 C-2.18051759 91.63629995 -2.16410047 84.59219618 -2.14403808 77.54805773 C-2.1216936 69.52880242 -2.11068931 61.50954417 -2.10064721 53.49026549 C-2.07973463 36.99347403 -2.0445496 20.49674492 -2 4 C-4.39197342 5.10131857 -6.78232377 6.20594797 -9.171875 7.3125 C-9.84331543 7.62123047 -10.51475586 7.92996094 -11.20654297 8.24804688 C-15.71951396 10.34197725 -20.03372247 12.62556432 -24.265625 15.25 C-26 16 -26 16 -29 15 C-28.3294458 14.65219482 -27.6588916 14.30438965 -26.96801758 13.94604492 C-23.9153273 12.36149674 -20.86390429 10.77452311 -17.8125 9.1875 C-16.75740234 8.64029297 -15.70230469 8.09308594 -14.61523438 7.52929688 C-13.08286133 6.73168945 -13.08286133 6.73168945 -11.51953125 5.91796875 C-10.58214111 5.43094482 -9.64475098 4.9439209 -8.67895508 4.44213867 C-6.8321944 3.447988 -5.01231001 2.40281024 -3.2175293 1.31762695 C-1 0 -1 0 0 0 Z " fill="#9D9D9D" transform="translate(451,225)"/>
<path d="M0 0 C0.33 0 0.66 0 1 0 C1.06058594 0.98742187 1.12117188 1.97484375 1.18359375 2.9921875 C1.26738281 4.27351563 1.35117187 5.55484375 1.4375 6.875 C1.51871094 8.15117187 1.59992188 9.42734375 1.68359375 10.7421875 C1.79206027 13.88300152 1.79206027 13.88300152 3 16 C2.34 16 1.68 16 1 16 C1.03029297 16.89307861 1.06058594 17.78615723 1.09179688 18.70629883 C1.20401561 22.02171517 1.31578356 25.33714607 1.42724609 28.65258789 C1.47556798 30.0871643 1.52406923 31.52173468 1.57275391 32.95629883 C1.64272531 35.01902734 1.71205038 37.08177672 1.78125 39.14453125 C1.82314453 40.38565674 1.86503906 41.62678223 1.90820312 42.90551758 C2.03301483 47.11293349 1.73669421 50.85609508 1 55 C1.66 55.33 2.32 55.66 3 56 C2.34 56 1.68 56 1 56 C1.0721875 56.89976562 1.144375 57.79953125 1.21875 58.7265625 C2.01712129 69.79287561 2.10366468 80.80155505 2.01586914 91.89379883 C2.00304524 93.5958258 2 95.29792472 2 97 C2.33 97.33 2.66 97.66 3 98 C3.04092937 100.33297433 3.04241723 102.66705225 3 105 C2.67 105 2.34 105 2 105 C1.97301578 107.43757413 1.95316901 109.87484915 1.9375 112.3125 C1.92912109 113.00279297 1.92074219 113.69308594 1.91210938 114.40429688 C1.89692094 117.5483025 1.99806673 119.99420019 3 123 C2.5625 125.1875 2.5625 125.1875 2 127 C2.66 127.33 3.32 127.66 4 128 C2.68 128.33 1.36 128.66 0 129 C0 86.43 0 43.86 0 0 Z " fill="#979797" transform="translate(276,326)"/>
<path d="M0 0 C0.33 0 0.66 0 1 0 C1 27.72 1 55.44 1 84 C1.99 84.33 2.98 84.66 4 85 C4 85.66 4 86.32 4 87 C3.34 87 2.68 87 2 87 C2 87.66 2 88.32 2 89 C2.66 89.33 3.32 89.66 4 90 C3.01 90.495 3.01 90.495 2 91 C1.34 90.67 0.68 90.34 0 90 C0 60.3 0 30.6 0 0 Z " fill="#EBEAEA" transform="translate(275,236)"/>
<path d="M0 0 C5.06026618 1.5067224 9.49698376 3.686011 14.14453125 6.1328125 C15.72417529 6.94745686 17.30426771 7.76123224 18.88476562 8.57421875 C21.35106145 9.84747801 23.81408095 11.12583281 26.26977539 12.41943359 C28.65721607 13.67406658 31.05572196 14.90497863 33.45703125 16.1328125 C34.17921341 16.52026642 34.90139557 16.90772034 35.64546204 17.30691528 C42.14610186 20.59033284 47.99062977 20.94150741 55 19 C53.13324464 21.68346082 51.69363422 22.08753308 48.5 23 C42.70128662 23.55633412 37.98945324 20.63247226 33 18 C28.81229254 15.78005165 28.81229254 15.78005165 24.3125 14.5 C22 14 22 14 20.6328125 12.6015625 C18.73651453 10.74155732 16.99740128 9.91794254 14.5625 8.875 C13.80066406 8.54242188 13.03882813 8.20984375 12.25390625 7.8671875 C10.04096922 6.96026524 10.04096922 6.96026524 7.8125 6.46875 C5.4648851 5.86160822 4.59161218 4.79921377 3 3 C2.443125 2.443125 1.88625 1.88625 1.3125 1.3125 C0.879375 0.879375 0.44625 0.44625 0 0 Z " fill="#9E9FA0" transform="translate(165,271)"/>
<path d="M0 0 C0.33 0 0.66 0 1 0 C1 17.49 1 34.98 1 53 C0.67 53 0.34 53 0 53 C0 37.16 0 21.32 0 5 C-0.66 5 -1.32 5 -2 5 C-2.20625 5.78375 -2.4125 6.5675 -2.625 7.375 C-4.49034873 12.29273755 -7.20865195 16.55842103 -10 21 C-10.33 20.34 -10.66 19.68 -11 19 C-10.21142578 17.13647461 -10.21142578 17.13647461 -8.9453125 14.90234375 C-8.49542969 14.10119141 -8.04554688 13.30003906 -7.58203125 12.47460938 C-7.10121094 11.63736328 -6.62039062 10.80011719 -6.125 9.9375 C-5.41537109 8.67583008 -5.41537109 8.67583008 -4.69140625 7.38867188 C-1.17845547 1.17845547 -1.17845547 1.17845547 0 0 Z " fill="#C4C4C4" transform="translate(252,233)"/>
<path d="M0 0 C1.68579102 2.51269531 1.68579102 2.51269531 3.50390625 5.828125 C3.82785873 6.4141449 4.15181122 7.00016479 4.48558044 7.60394287 C5.16980762 8.84570492 5.84955437 10.08994469 6.52514648 11.33642578 C7.5535675 13.23352249 8.59473966 15.12312132 9.63867188 17.01171875 C15.11891693 26.98920897 15.11891693 26.98920897 17 32 C13.93929748 29.18366168 12.02563067 26.53993305 10.16015625 22.83203125 C9.65419922 21.85685547 9.14824219 20.88167969 8.62695312 19.87695312 C7.58003856 17.82625532 6.54102011 15.77150807 5.50976562 13.71289062 C5.00251953 12.74158203 4.49527344 11.77027344 3.97265625 10.76953125 C3.29601929 9.43305542 3.29601929 9.43305542 2.60571289 8.06958008 C1.13223199 5.7554045 1.13223199 5.7554045 -1.68579102 5.2019043 C-2.83132446 5.10196167 -2.83132446 5.10196167 -4 5 C-3.01 3.68 -2.02 2.36 -1 1 C-1.75925781 1.37253906 -2.51851563 1.74507813 -3.30078125 2.12890625 C-4.29464844 2.60199219 -5.28851563 3.07507813 -6.3125 3.5625 C-7.79169922 4.27599609 -7.79169922 4.27599609 -9.30078125 5.00390625 C-12 6 -12 6 -15 5 C-13.06891037 3.96709159 -11.129882 2.94901328 -9.1875 1.9375 C-8.10855469 1.36902344 -7.02960938 0.80054687 -5.91796875 0.21484375 C-3 -1 -3 -1 0 0 Z " fill="#8E8F8F" transform="translate(459,119)"/>
<path d="M0 0 C0 0.99 0 1.98 0 3 C0.33 3.33 0.66 3.66 1 4 C1.04092937 6.33297433 1.04241723 8.66705225 1 11 C0.67 11 0.34 11 0 11 C-0.02698422 13.43757413 -0.04683099 15.87484915 -0.0625 18.3125 C-0.07087891 19.00279297 -0.07925781 19.69308594 -0.08789062 20.40429688 C-0.10307906 23.5483025 -0.00193327 25.99420019 1 29 C0.5625 31.1875 0.5625 31.1875 0 33 C0.66 33.33 1.32 33.66 2 34 C0.02 34.495 0.02 34.495 -2 35 C-2 23.78 -2 12.56 -2 1 C-1.34 0.67 -0.68 0.34 0 0 Z " fill="#AEAFAF" transform="translate(278,420)"/>
<path d="M0 0 C6.11401112 1.03130415 11.55849327 3.55601861 17.25 5.9375 C18.920625 6.62102539 18.920625 6.62102539 20.625 7.31835938 C21.68203125 7.75857422 22.7390625 8.19878906 23.828125 8.65234375 C24.7965332 9.05445068 25.76494141 9.45655762 26.76269531 9.87084961 C29 11 29 11 30 13 C28.35 13.33 26.7 13.66 25 14 C25.33 13.01 25.66 12.02 26 11 C25.27458008 10.87165771 24.54916016 10.74331543 23.80175781 10.61108398 C19.25542881 9.61949619 15.05909169 7.79164546 10.75 6.0625 C9.82703125 5.70220703 8.9040625 5.34191406 7.953125 4.97070312 C7.0765625 4.62072266 6.2 4.27074219 5.296875 3.91015625 C4.49604492 3.59183838 3.69521484 3.27352051 2.87011719 2.94555664 C1 2 1 2 0 0 Z " fill="#969697" transform="translate(406,90)"/>
<path d="M0 0 C1.1875 2.0625 1.1875 2.0625 2 4 C0.02 4.99 0.02 4.99 -2 6 C-2.66 5.34 -3.32 4.68 -4 4 C-3.01 3.01 -2.02 2.02 -1 1 C-1.75925781 1.37253906 -2.51851563 1.74507813 -3.30078125 2.12890625 C-4.29464844 2.60199219 -5.28851563 3.07507813 -6.3125 3.5625 C-7.79169922 4.27599609 -7.79169922 4.27599609 -9.30078125 5.00390625 C-12 6 -12 6 -15 5 C-13.06891037 3.96709159 -11.129882 2.94901328 -9.1875 1.9375 C-8.10855469 1.36902344 -7.02960938 0.80054687 -5.91796875 0.21484375 C-3 -1 -3 -1 0 0 Z " fill="#AFB0B0" transform="translate(459,119)"/>
<path d="M0 0 C0.66 0.33 1.32 0.66 2 1 C4.09821215 0.60061233 4.09821215 0.60061233 6 0 C3.52158036 2.80496817 0.79743793 4.32957227 -2.5 6.0625 C-5.444187 7.61769555 -8.22683295 9.15122196 -11 11 C-11.66 10.34 -12.32 9.68 -13 9 C-11.21118264 7.99491199 -9.41885304 6.99607264 -7.625 6 C-6.62726563 5.443125 -5.62953125 4.88625 -4.6015625 4.3125 C-2 3 -2 3 0 3 C0 2.01 0 1.02 0 0 Z " fill="#A4A5A6" transform="translate(314,432)"/>
<path d="M0 0 C0 0.99 0 1.98 0 3 C-1.24735567 3.6509259 -2.49801832 4.29551669 -3.75 4.9375 C-4.44609375 5.29714844 -5.1421875 5.65679687 -5.859375 6.02734375 C-7.94443676 6.9747532 -9.7340329 7.66567699 -12 8 C-14.75 6.5625 -14.75 6.5625 -17 5 C-14 4 -14 4 -10.1875 4.1875 C-5.64558927 4.27984939 -3.49383965 2.79507172 0 0 Z " fill="#A2A2A3" transform="translate(356,386)"/>
<path d="M0 0 C-0.66 0 -1.32 0 -2 0 C-2 0.66 -2 1.32 -2 2 C-3.60064843 2.53154742 -5.20568874 3.04988353 -6.8125 3.5625 C-7.70582031 3.85253906 -8.59914062 4.14257812 -9.51953125 4.44140625 C-12 5 -12 5 -15 4 C-13.06767179 3.13419713 -11.12892806 2.28270059 -9.1875 1.4375 C-8.10855469 0.96183594 -7.02960938 0.48617188 -5.91796875 -0.00390625 C-3 -1 -3 -1 0 0 Z " fill="#9B9D9C" transform="translate(244,13)"/>
<path d="M0 0 C0.33 0 0.66 0 1 0 C1 4.29 1 8.58 1 13 C0.67 13 0.34 13 0 13 C0 10.36 0 7.72 0 5 C-0.99 4.67 -1.98 4.34 -3 4 C-2.02727325 2.64664105 -1.0260734 1.31337396 0 0 Z " fill="#C4C4C5" transform="translate(252,233)"/>
<path d="M0 0 C0.33 0 0.66 0 1 0 C1 4.29 1 8.58 1 13 C0.67 13 0.34 13 0 13 C0 8.71 0 4.42 0 0 Z " fill="#FFFFFF" transform="translate(477,217)"/>
<path d="M0 0 C0.33 0 0.66 0 1 0 C1 3.96 1 7.92 1 12 C0.67 12 0.34 12 0 12 C0 8.04 0 4.08 0 0 Z " fill="#FFFFFF" transform="translate(249,265)"/>
<path d="M0 0 C0.33 0 0.66 0 1 0 C1 3.63 1 7.26 1 11 C0.67 11 0.34 11 0 11 C0 7.37 0 3.74 0 0 Z " fill="#FFFFFF" transform="translate(448,259)"/>
<path d="M0 0 C2 3 2 3 1.625 6.1875 C1.41875 7.115625 1.2125 8.04375 1 9 C0.67 9 0.34 9 0 9 C0 6.03 0 3.06 0 0 Z " fill="#FFFFFF" transform="translate(477,231)"/>
<path d="M0 0 C1.32 0 2.64 0 4 0 C4.33 0.99 4.66 1.98 5 3 C3.35 2.67 1.7 2.34 0 2 C0 1.34 0 0.68 0 0 Z " fill="#FFFFFF" transform="translate(131,419)"/>
<path d="M0 0 C0.33 0 0.66 0 1 0 C1 2.97 1 5.94 1 9 C0.67 9 0.34 9 0 9 C0 6.03 0 3.06 0 0 Z " fill="#F7FFFF" transform="translate(477,269)"/>
<path d="M0 0 C2.475 0.495 2.475 0.495 5 1 C4.360625 1.12375 3.72125 1.2475 3.0625 1.375 C2.381875 1.58125 1.70125 1.7875 1 2 C0.67 2.66 0.34 3.32 0 4 C0 2.68 0 1.36 0 0 Z " fill="#FEFEFE" transform="translate(400,90)"/>
<path d="M0 0 C1.98 0.66 3.96 1.32 6 2 C5.01 2.495 5.01 2.495 4 3 C1.875 2.0625 1.875 2.0625 0 1 C0 0.67 0 0.34 0 0 Z " fill="#FFFFFF" transform="translate(210,459)"/>
<path d="M0 0 C0.33 0 0.66 0 1 0 C1 2.64 1 5.28 1 8 C0.67 8 0.34 8 0 8 C0 5.36 0 2.72 0 0 Z " fill="#FFFFFF" transform="translate(49,214)"/>
<path d="M0 0 C1.32 0.33 2.64 0.66 4 1 C2.02 1.99 2.02 1.99 0 3 C0 2.01 0 1.02 0 0 Z " fill="#FFFFFF" transform="translate(299,438)"/>
<path d="M0 0 C0.33 0 0.66 0 1 0 C1 2.31 1 4.62 1 7 C0.67 7 0.34 7 0 7 C0 4.69 0 2.38 0 0 Z " fill="#FFFFFF" transform="translate(448,311)"/>
<path d="M0 0 C0.33 0 0.66 0 1 0 C1 2.31 1 4.62 1 7 C0.67 7 0.34 7 0 7 C0 4.69 0 2.38 0 0 Z " fill="#FFFFFF" transform="translate(49,294)"/>
<path d="M0 0 C0.99 0.99 1.98 1.98 3 3 C2.67 3.66 2.34 4.32 2 5 C1.34 4.34 0.68 3.68 0 3 C0 2.01 0 1.02 0 0 Z " fill="#FFFFFF" transform="translate(288,256)"/>
<path d="M0 0 C0.33 0 0.66 0 1 0 C1 2.31 1 4.62 1 7 C0.67 7 0.34 7 0 7 C0 4.69 0 2.38 0 0 Z " fill="#FFFFFF" transform="translate(448,239)"/>
<path d="M0 0 C0.33 0 0.66 0 1 0 C1 2.31 1 4.62 1 7 C0.67 7 0.34 7 0 7 C0 4.69 0 2.38 0 0 Z " fill="#FFFFFF" transform="translate(448,231)"/>
<path d="M0 0 C0.33 0 0.66 0 1 0 C1 1.98 1 3.96 1 6 C0.67 6 0.34 6 0 6 C0 4.02 0 2.04 0 0 Z " fill="#FFFFFF" transform="translate(249,361)"/>
<path d="M0 0 C0.33 0 0.66 0 1 0 C1 1.98 1 3.96 1 6 C0.67 6 0.34 6 0 6 C0 4.02 0 2.04 0 0 Z " fill="#FFFFFF" transform="translate(249,337)"/>
<path d="M0 0 C0.33 0 0.66 0 1 0 C1 1.98 1 3.96 1 6 C0.67 6 0.34 6 0 6 C0 4.02 0 2.04 0 0 Z " fill="#FFFFFF" transform="translate(49,281)"/>
<path d="M0 0 C0.33 0 0.66 0 1 0 C1 1.98 1 3.96 1 6 C0.67 6 0.34 6 0 6 C0 4.02 0 2.04 0 0 Z " fill="#FFFFFF" transform="translate(477,253)"/>
<path d="M0 0 C0.33 0 0.66 0 1 0 C1 1.98 1 3.96 1 6 C0.67 6 0.34 6 0 6 C0 4.02 0 2.04 0 0 Z " fill="#FFFFFF" transform="translate(49,241)"/>
<path d="M0 0 C0.99 0.33 1.98 0.66 3 1 C2.67 1.66 2.34 2.32 2 3 C1.34 2.67 0.68 2.34 0 2 C0 1.34 0 0.68 0 0 Z " fill="#FFFFFF" transform="translate(472,151)"/>
<path d="M0 0 C1.485 0.99 1.485 0.99 3 2 C1.68 2.33 0.36 2.66 -1 3 C-0.67 2.01 -0.34 1.02 0 0 Z " fill="#FFFFFF" transform="translate(69,120)"/>
<path d="M0 0 C1.98 0.99 1.98 0.99 4 2 C2.68 1.67 1.36 1.34 0 1 C0 0.67 0 0.34 0 0 Z " fill="#F4FFFF" transform="translate(240,474)"/>
<path d="M0 0 C0.33 0 0.66 0 1 0 C1 1.65 1 3.3 1 5 C0.67 5 0.34 5 0 5 C0 3.35 0 1.7 0 0 Z " fill="#FFFFFF" transform="translate(249,432)"/>
<path d="M0 0 C1.32 0.33 2.64 0.66 4 1 C3.01 1.495 3.01 1.495 2 2 C1.34 1.34 0.68 0.68 0 0 Z " fill="#FFFFEE" transform="translate(82,393)"/>
<path d="M0 0 C0.66 0.33 1.32 0.66 2 1 C0.68 1.33 -0.64 1.66 -2 2 C-1.34 1.34 -0.68 0.68 0 0 Z " fill="#F4F4F4" transform="translate(74,388)"/>
<path d="M0 0 C0.33 0 0.66 0 1 0 C1 1.65 1 3.3 1 5 C0.67 5 0.34 5 0 5 C0 3.35 0 1.7 0 0 Z " fill="#FFFFFF" transform="translate(448,337)"/>
<path d="M0 0 C0.33 0 0.66 0 1 0 C1 1.65 1 3.3 1 5 C0.67 5 0.34 5 0 5 C0 3.35 0 1.7 0 0 Z " fill="#FFFFFF" transform="translate(448,329)"/>
<path d="M0 0 C0.66 1.32 1.32 2.64 2 4 C1.34 4 0.68 4 0 4 C0 2.68 0 1.36 0 0 Z " fill="#FFFFFF" transform="translate(404,321)"/>
<path d="M0 0 C0.33 0 0.66 0 1 0 C1 1.65 1 3.3 1 5 C0.67 5 0.34 5 0 5 C0 3.35 0 1.7 0 0 Z " fill="#FFFFFF" transform="translate(249,296)"/>
<path d="M0 0 C0.66 0 1.32 0 2 0 C1.67 0.99 1.34 1.98 1 3 C0.67 2.01 0.34 1.02 0 0 Z " fill="#FFFFFF" transform="translate(226,283)"/>
<path d="M0 0 C0.99 0.33 1.98 0.66 3 1 C2.01 1.33 1.02 1.66 0 2 C0 1.34 0 0.68 0 0 Z " fill="#FFFFFF" transform="translate(404,252)"/>
<path d="M0 0 C0.33 0 0.66 0 1 0 C1 1.65 1 3.3 1 5 C0.67 5 0.34 5 0 5 C0 3.35 0 1.7 0 0 Z " fill="#FFFFFF" transform="translate(249,242)"/>
<path d="M0 0 C0.66 0.33 1.32 0.66 2 1 C1.67 1.66 1.34 2.32 1 3 C0.34 2.34 -0.32 1.68 -1 1 C-0.67 0.67 -0.34 0.34 0 0 Z " fill="#FFFFFF" transform="translate(483,168)"/>
<path d="M0 0 C0.66 0 1.32 0 2 0 C2 0.66 2 1.32 2 2 C1.01 1.67 0.02 1.34 -1 1 C-0.67 0.67 -0.34 0.34 0 0 Z " fill="#FEF6FE" transform="translate(396,148)"/>
<path d="M0 0 C1 4 1 4 1 4 Z " fill="#FFFFFF" transform="translate(249,412)"/>
<path d="M0 0 C0.33 0.66 0.66 1.32 1 2 C0.01 1.67 -0.98 1.34 -2 1 C-1.34 0.67 -0.68 0.34 0 0 Z " fill="#FFFFFF" transform="translate(420,409)"/>
<path d="M0 0 C1 4 1 4 1 4 Z " fill="#FFFFFF" transform="translate(249,393)"/>
<path d="M0 0 C0.99 0.33 1.98 0.66 3 1 C2.01 1.33 1.02 1.66 0 2 C0 1.34 0 0.68 0 0 Z " fill="#EFEFEF" transform="translate(460,388)"/>
<path d="M0 0 C1 4 1 4 1 4 Z " fill="#FFFFFF" transform="translate(49,330)"/>
<path d="M0 0 C1 4 1 4 1 4 Z " fill="#FFFFFF" transform="translate(249,321)"/>
<path d="M0 0 C1 4 1 4 1 4 Z " fill="#FFFFFF" transform="translate(49,321)"/>
<path d="M0 0 C1 4 1 4 1 4 Z " fill="#FFFFFF" transform="translate(249,289)"/>
<path d="M0 0 C0.99 0.33 1.98 0.66 3 1 C2.01 1 1.02 1 0 1 C0 0.67 0 0.34 0 0 Z " fill="#FFFFFF" transform="translate(417,271)"/>
<path d="M0 0 C0.99 0.33 1.98 0.66 3 1 C2.01 1 1.02 1 0 1 C0 0.67 0 0.34 0 0 Z " fill="#FFFFFF" transform="translate(148,265)"/>
<path d="M0 0 C0.99 0.33 1.98 0.66 3 1 C2.01 1 1.02 1 0 1 C0 0.67 0 0.34 0 0 Z " fill="#FFFFFF" transform="translate(388,260)"/>
<path d="M0 0 C1.485 0.99 1.485 0.99 3 2 C2.01 2 1.02 2 0 2 C0 1.34 0 0.68 0 0 Z " fill="#FFFFFF" transform="translate(344,248)"/>
<path d="M0 0 C0.66 0.66 1.32 1.32 2 2 C1.01 1.67 0.02 1.34 -1 1 C-0.67 0.67 -0.34 0.34 0 0 Z " fill="#FFFFFF" transform="translate(379,231)"/>
<path d="M0 0 C0.99 0.33 1.98 0.66 3 1 C2.01 1 1.02 1 0 1 C0 0.67 0 0.34 0 0 Z " fill="#FFFFFF" transform="translate(285,200)"/>
<path d="M0 0 C0.66 0.66 1.32 1.32 2 2 C1.01 1.67 0.02 1.34 -1 1 C-0.67 0.67 -0.34 0.34 0 0 Z " fill="#FFFFFF" transform="translate(214,152)"/>
<path d="M0 0 C0.33 0.66 0.66 1.32 1 2 C0.01 1.67 -0.98 1.34 -2 1 C-1.34 0.67 -0.68 0.34 0 0 Z " fill="#FFFFFF" transform="translate(419,138)"/>
<path d="M0 0 C4 1 4 1 4 1 Z " fill="#FFFFFF" transform="translate(377,81)"/>
<path d="M0 0 C4 1 4 1 4 1 Z " fill="#FFFFFF" transform="translate(143,49)"/>
<path d="M0 0 C0.66 0 1.32 0 2 0 C1.67 0.99 1.34 1.98 1 3 C0.67 2.01 0.34 1.02 0 0 Z " fill="#FFFFFF" transform="translate(267,35)"/>
<path d="M0 0 C3 1 3 1 3 1 Z " fill="#FFFFFF" transform="translate(256,483)"/>
<path d="M0 0 C0.66 0.66 1.32 1.32 2 2 C1.34 2 0.68 2 0 2 C0 1.34 0 0.68 0 0 Z " fill="#FFFFFF" transform="translate(208,457)"/>
<path d="M0 0 C0.33 0.66 0.66 1.32 1 2 C0.34 1.67 -0.32 1.34 -1 1 C-0.67 0.67 -0.34 0.34 0 0 Z " fill="#FFFFFF" transform="translate(281,448)"/>
<path d="" fill="#FFFFFF" transform="translate(0,0)"/>
<path d="M0 0 C0.99 0.495 0.99 0.495 2 1 C1.01 1.495 1.01 1.495 0 2 C0 1.34 0 0.68 0 0 Z " fill="#FFFFFF" transform="translate(147,426)"/>
<path d="M0 0 C3 1 3 1 3 1 Z " fill="#FFFFFF" transform="translate(144,425)"/>
<path d="M0 0 C3 1 3 1 3 1 Z " fill="#FFFFFF" transform="translate(128,417)"/>
<path d="M0 0 C3 1 3 1 3 1 Z " fill="#FFFFFF" transform="translate(112,409)"/>
<path d="M0 0 C3 1 3 1 3 1 Z " fill="#FFFFFF" transform="translate(98,401)"/>
<path d="" fill="#FFFFFF" transform="translate(0,0)"/>
<path d="" fill="#FFFFFF" transform="translate(0,0)"/>
<path d="" fill="#FFFFFF" transform="translate(0,0)"/>
<path d="M0 0 C0.33 0.66 0.66 1.32 1 2 C0.34 1.67 -0.32 1.34 -1 1 C-0.67 0.67 -0.34 0.34 0 0 Z " fill="#FFFFFF" transform="translate(365,377)"/>
<path d="" fill="#FFFFFF" transform="translate(0,0)"/>
<path d="M0 0 C0.33 0.66 0.66 1.32 1 2 C0.34 1.67 -0.32 1.34 -1 1 C-0.67 0.67 -0.34 0.34 0 0 Z " fill="#FFFFFF" transform="translate(375,363)"/>
<path d="M0 0 C0.66 0 1.32 0 2 0 C1.67 0.66 1.34 1.32 1 2 C0.67 1.34 0.34 0.68 0 0 Z " fill="#FFFFFF" transform="translate(306,356)"/>
<path d="" fill="#FFFFFF" transform="translate(0,0)"/>
<path d="" fill="#FFFFFF" transform="translate(0,0)"/>
<path d="" fill="#FFFFFF" transform="translate(0,0)"/>
<path d="" fill="#FFFFFF" transform="translate(0,0)"/>
<path d="" fill="#FFFFFF" transform="translate(0,0)"/>
<path d="" fill="#FFFFFF" transform="translate(0,0)"/>
<path d="" fill="#FFFFFF" transform="translate(0,0)"/>
<path d="" fill="#FFFFFF" transform="translate(0,0)"/>
<path d="" fill="#FFFFFF" transform="translate(0,0)"/>
<path d="" fill="#FFFFFF" transform="translate(0,0)"/>
<path d="" fill="#FFFFFF" transform="translate(0,0)"/>
<path d="M0 0 C3 1 3 1 3 1 Z " fill="#FFFFFF" transform="translate(372,268)"/>
<path d="" fill="#FFFFFF" transform="translate(0,0)"/>
<path d="" fill="#FFFFFF" transform="translate(0,0)"/>
<path d="" fill="#FFFFFF" transform="translate(0,0)"/>
<path d="M0 0 C0.99 0.495 0.99 0.495 2 1 C1.01 1.495 1.01 1.495 0 2 C0 1.34 0 0.68 0 0 Z " fill="#FFFFFF" transform="translate(282,249)"/>
<path d="" fill="#FFFFFF" transform="translate(0,0)"/>
<path d="M0 0 C0.66 0 1.32 0 2 0 C1.67 0.66 1.34 1.32 1 2 C0.67 1.34 0.34 0.68 0 0 Z " fill="#FFFFFF" transform="translate(420,244)"/>
<path d="M0 0 C0.66 0.66 1.32 1.32 2 2 C1.34 2 0.68 2 0 2 C0 1.34 0 0.68 0 0 Z " fill="#FFFFFF" transform="translate(392,225)"/>
<path d="M0 0 C0.99 0.495 0.99 0.495 2 1 C1.01 1.495 1.01 1.495 0 2 C0 1.34 0 0.68 0 0 Z " fill="#FFFFFF" transform="translate(429,206)"/>
<path d="M0 0 C0.99 0.495 0.99 0.495 2 1 C1.01 1.495 1.01 1.495 0 2 C0 1.34 0 0.68 0 0 Z " fill="#FFFFFF" transform="translate(458,192)"/>
<path d="M0 0 C0.33 0.66 0.66 1.32 1 2 C0.34 1.67 -0.32 1.34 -1 1 C-0.67 0.67 -0.34 0.34 0 0 Z " fill="#FFFFFF" transform="translate(309,188)"/>
<path d="M0 0 C3 1 3 1 3 1 Z " fill="#FFFFFF" transform="translate(219,188)"/>
<path d="M0 0 C0.99 0.495 0.99 0.495 2 1 C1.01 1.495 1.01 1.495 0 2 C0 1.34 0 0.68 0 0 Z " fill="#FFFFFF" transform="translate(282,167)"/>
<path d="" fill="#FFFFFF" transform="translate(0,0)"/>
<path d="M0 0 C0.66 0.66 1.32 1.32 2 2 C1.34 2 0.68 2 0 2 C0 1.34 0 0.68 0 0 Z " fill="#FFFFFF" transform="translate(163,163)"/>
<path d="M0 0 C3 1 3 1 3 1 Z " fill="#FFFFFF" transform="translate(303,158)"/>
<path d="M0 0 C0.66 0 1.32 0 2 0 C1.67 0.66 1.34 1.32 1 2 C0.67 1.34 0.34 0.68 0 0 Z " fill="#FFFFFF" transform="translate(475,156)"/>
<path d="M0 0 C3 1 3 1 3 1 Z " fill="#FFFFFF" transform="translate(60,141)"/>
<path d="M0 0 C3 1 3 1 3 1 Z " fill="#FFFFFF" transform="translate(89,130)"/>
<path d="" fill="#FFFFFF" transform="translate(0,0)"/>
<path d="M0 0 C3 1 3 1 3 1 Z " fill="#FFFFFF" transform="translate(384,121)"/>
<path d="M0 0 C3 1 3 1 3 1 Z " fill="#FFFFFF" transform="translate(122,112)"/>
<path d="M0 0 C0.99 0.495 0.99 0.495 2 1 C1.01 1.495 1.01 1.495 0 2 C0 1.34 0 0.68 0 0 Z " fill="#FFFFFF" transform="translate(40,110)"/>
<path d="M0 0 C0.66 0.66 1.32 1.32 2 2 C1.34 2 0.68 2 0 2 C0 1.34 0 0.68 0 0 Z " fill="#FFFFFF" transform="translate(344,68)"/>
<path d="M0 0 C0.66 0 1.32 0 2 0 C1.67 0.66 1.34 1.32 1 2 C0.67 1.34 0.34 0.68 0 0 Z " fill="#FFFFFF" transform="translate(342,66)"/>
<path d="M0 0 C3 1 3 1 3 1 Z " fill="#FFFFFF" transform="translate(112,62)"/>
<path d="M0 0 C0.66 0.66 1.32 1.32 2 2 C1.34 2 0.68 2 0 2 C0 1.34 0 0.68 0 0 Z " fill="#FFFFFF" transform="translate(306,51)"/>
<path d="M0 0 C3 1 3 1 3 1 Z " fill="#FFFFFF" transform="translate(280,41)"/>
<path d="M0 0 C0.66 0.66 1.32 1.32 2 2 C1.34 2 0.68 2 0 2 C0 1.34 0 0.68 0 0 Z " fill="#FFFFFF" transform="translate(229,14)"/>
<path d="M0 0 C0.66 0 1.32 0 2 0 C1.67 0.66 1.34 1.32 1 2 C0.67 1.34 0.34 0.68 0 0 Z " fill="#FFFFFF" transform="translate(277,6)"/>
<path d="M0 0 C2 1 2 1 2 1 Z " fill="#FFFFFF" transform="translate(292,476)"/>
<path d="M0 0 C2 1 2 1 2 1 Z " fill="#FFFFFF" transform="translate(335,453)"/>
<path d="" fill="#FFFFFF" transform="translate(0,0)"/>
<path d="M0 0 C2 1 2 1 2 1 Z " fill="#FFFFFF" transform="translate(357,444)"/>
<path d="" fill="#FFFFFF" transform="translate(0,0)"/>
<path d="M0 0 C2 1 2 1 2 1 Z " fill="#FFFFFF" transform="translate(370,435)"/>
<path d="M0 0 C2 1 2 1 2 1 Z " fill="#FFFFFF" transform="translate(327,425)"/>
<path d="" fill="#FFFFFF" transform="translate(0,0)"/>
<path d="" fill="#FFFFFF" transform="translate(0,0)"/>
<path d="M0 0 C2 1 2 1 2 1 Z " fill="#FFFFFF" transform="translate(343,417)"/>
<path d="" fill="#FFFFFF" transform="translate(0,0)"/>
<path d="M0 0 C2 1 2 1 2 1 Z " fill="#FFFFFF" transform="translate(349,414)"/>
<path d="" fill="#FFFFFF" transform="translate(0,0)"/>
<path d="" fill="#FFFFFF" transform="translate(0,0)"/>
<path d="" fill="#FFFFFF" transform="translate(0,0)"/>
<path d="M0 0 C2 1 2 1 2 1 Z " fill="#FFFFFF" transform="translate(376,400)"/>
<path d="" fill="#FFFFFF" transform="translate(0,0)"/>
<path d="" fill="#FFFFFF" transform="translate(0,0)"/>
<path d="M0 0 C2 1 2 1 2 1 Z " fill="#FFFFFF" transform="translate(385,395)"/>
<path d="" fill="#FFFFFF" transform="translate(0,0)"/>
<path d="M0 0 C2 1 2 1 2 1 Z " fill="#FFFFFF" transform="translate(76,389)"/>
<path d="M0 0 C2 1 2 1 2 1 Z " fill="#FFFFFF" transform="translate(331,388)"/>
<path d="M0 0 C2 1 2 1 2 1 Z " fill="#DFDFDF" transform="translate(71,387)"/>
<path d="" fill="#FFFFFF" transform="translate(0,0)"/>
<path d="" fill="#FFFFFF" transform="translate(0,0)"/>
<path d="" fill="#FFFFFF" transform="translate(0,0)"/>
<path d="" fill="#FFFFFF" transform="translate(0,0)"/>
<path d="" fill="#FFFFFF" transform="translate(0,0)"/>
<path d="" fill="#FFFFFF" transform="translate(0,0)"/>
<path d="" fill="#FFFFFF" transform="translate(0,0)"/>
<path d="" fill="#FFFFFF" transform="translate(0,0)"/>
<path d="" fill="#FFFFFF" transform="translate(0,0)"/>
<path d="" fill="#FFFFFF" transform="translate(0,0)"/>
<path d="" fill="#FFFFFF" transform="translate(0,0)"/>
<path d="" fill="#FFFFFF" transform="translate(0,0)"/>
<path d="" fill="#FFFFFF" transform="translate(0,0)"/>
<path d="" fill="#FFFFFF" transform="translate(0,0)"/>
<path d="" fill="#FFFFFF" transform="translate(0,0)"/>
<path d="" fill="#FFFFFF" transform="translate(0,0)"/>
<path d="" fill="#FFFFFF" transform="translate(0,0)"/>
<path d="" fill="#FFFFFF" transform="translate(0,0)"/>
<path d="" fill="#FFFFFF" transform="translate(0,0)"/>
<path d="M0 0 C2 1 2 1 2 1 Z " fill="#FFFFFF" transform="translate(378,303)"/>
<path d="" fill="#FFFFFF" transform="translate(0,0)"/>
<path d="" fill="#FFFFFF" transform="translate(0,0)"/>
<path d="" fill="#FFFFFF" transform="translate(0,0)"/>
<path d="M0 0 C2 1 2 1 2 1 Z " fill="#FFFFFF" transform="translate(429,285)"/>
<path d="" fill="#FFFFFF" transform="translate(0,0)"/>
<path d="" fill="#FFFFFF" transform="translate(0,0)"/>
<path d="" fill="#FFFFFF" transform="translate(0,0)"/>
<path d="M0 0 C2 1 2 1 2 1 Z " fill="#FFFFFF" transform="translate(355,277)"/>
<path d="M0 0 C2 1 2 1 2 1 Z " fill="#FFFFFF" transform="translate(357,276)"/>
<path d="" fill="#FFFFFF" transform="translate(0,0)"/>
<path d="M0 0 C2 1 2 1 2 1 Z " fill="#FFFFFF" transform="translate(164,276)"/>
<path d="" fill="#FFFFFF" transform="translate(0,0)"/>
<path d="M0 0 C2 1 2 1 2 1 Z " fill="#FFFFFF" transform="translate(155,268)"/>
<path d="" fill="#FFFFFF" transform="translate(0,0)"/>
<path d="" fill="#FFFFFF" transform="translate(0,0)"/>
<path d="" fill="#FFFFFF" transform="translate(0,0)"/>
<path d="" fill="#FFFFFF" transform="translate(0,0)"/>
<path d="" fill="#FFFFFF" transform="translate(0,0)"/>
<path d="M0 0 C2 1 2 1 2 1 Z " fill="#FFFFFF" transform="translate(180,248)"/>
<path d="M0 0 C2 1 2 1 2 1 Z " fill="#FFFFFF" transform="translate(109,245)"/>
<path d="M0 0 C2 1 2 1 2 1 Z " fill="#FFFFFF" transform="translate(106,243)"/>
<path d="" fill="#FFFFFF" transform="translate(0,0)"/>
<path d="M0 0 C2 1 2 1 2 1 Z " fill="#FFFFFF" transform="translate(435,236)"/>
<path d="" fill="#FFFFFF" transform="translate(0,0)"/>
<path d="M0 0 C2 1 2 1 2 1 Z " fill="#FFFFFF" transform="translate(90,235)"/>
<path d="" fill="#FFFFFF" transform="translate(0,0)"/>
<path d="" fill="#FFFFFF" transform="translate(0,0)"/>
<path d="" fill="#FFFFFF" transform="translate(0,0)"/>
<path d="M0 0 C2 1 2 1 2 1 Z " fill="#FFFFFF" transform="translate(395,224)"/>
<path d="M0 0 C2 1 2 1 2 1 Z " fill="#FFFFFF" transform="translate(409,217)"/>
<path d="" fill="#FFFFFF" transform="translate(0,0)"/>
<path d="M0 0 C2 1 2 1 2 1 Z " fill="#FFFFFF" transform="translate(427,208)"/>
<path d="M0 0 C2 1 2 1 2 1 Z " fill="#FFFFFF" transform="translate(441,201)"/>
<path d="M0 0 C2 1 2 1 2 1 Z " fill="#FFFFFF" transform="translate(295,197)"/>
<path d="" fill="#FFFFFF" transform="translate(0,0)"/>
<path d="M0 0 C2 1 2 1 2 1 Z " fill="#FFFFFF" transform="translate(59,187)"/>
<path d="M0 0 C2 1 2 1 2 1 Z " fill="#FFFFFF" transform="translate(210,185)"/>
<path d="M0 0 C2 1 2 1 2 1 Z " fill="#FFFFFF" transform="translate(52,183)"/>
<path d="M0 0 C2 1 2 1 2 1 Z " fill="#FFFFFF" transform="translate(472,182)"/>
<path d="" fill="#FFFFFF" transform="translate(0,0)"/>
<path d="" fill="#FFFFFF" transform="translate(0,0)"/>
<path d="M0 0 C2 1 2 1 2 1 Z " fill="#FFFFFF" transform="translate(261,174)"/>
<path d="M0 0 C2 1 2 1 2 1 Z " fill="#FFFFFF" transform="translate(364,163)"/>
<path d="M0 0 C2 1 2 1 2 1 Z " fill="#FFDFDF" transform="translate(510,157)"/>
<path d="" fill="#FFFFFF" transform="translate(0,0)"/>
<path d="M0 0 C2 1 2 1 2 1 Z " fill="#FFFFFF" transform="translate(146,155)"/>
<path d="" fill="#FFFFFF" transform="translate(0,0)"/>
<path d="" fill="#FFFFFF" transform="translate(0,0)"/>
<path d="M0 0 C2 1 2 1 2 1 Z " fill="#FFFFFF" transform="translate(139,152)"/>
<path d="M0 0 C2 1 2 1 2 1 Z " fill="#FFFFFF" transform="translate(321,150)"/>
<path d="M0 0 C2 1 2 1 2 1 Z " fill="#FFFFFF" transform="translate(210,150)"/>
<path d="" fill="#FFFFFF" transform="translate(0,0)"/>
<path d="M0 0 C2 1 2 1 2 1 Z " fill="#FFFFFF" transform="translate(122,145)"/>
<path d="M0 0 C2 1 2 1 2 1 Z " fill="#FFFFFF" transform="translate(421,140)"/>
<path d="M0 0 C2 1 2 1 2 1 Z " fill="#FFFFFF" transform="translate(345,139)"/>
<path d="" fill="#FFFFFF" transform="translate(0,0)"/>
<path d="M0 0 C2 1 2 1 2 1 Z " fill="#FFFFFF" transform="translate(348,138)"/>
<path d="" fill="#FFFFFF" transform="translate(0,0)"/>
<path d="M0 0 C2 1 2 1 2 1 Z " fill="#FFFFFF" transform="translate(95,132)"/>
<path d="" fill="#FFFFFF" transform="translate(0,0)"/>
<path d="M0 0 C2 1 2 1 2 1 Z " fill="#FFFFFF" transform="translate(156,127)"/>
<path d="M0 0 C2 1 2 1 2 1 Z " fill="#FFFFFF" transform="translate(453,124)"/>
<path d="" fill="#FFFFFF" transform="translate(0,0)"/>
<path d="" fill="#FFFFFF" transform="translate(0,0)"/>
<path d="" fill="#FFFFFF" transform="translate(0,0)"/>
<path d="" fill="#FFFFFF" transform="translate(0,0)"/>
<path d="M0 0 C2 1 2 1 2 1 Z " fill="#FFFFFF" transform="translate(49,94)"/>
<path d="M0 0 C2 1 2 1 2 1 Z " fill="#DFDFDF" transform="translate(56,86)"/>
<path d="M0 0 C2 1 2 1 2 1 Z " fill="#FFFFFF" transform="translate(140,84)"/>
<path d="M0 0 C2 1 2 1 2 1 Z " fill="#D4FFFF" transform="translate(454,79)"/>
<path d="M0 0 C2 1 2 1 2 1 Z " fill="#FFFFFF" transform="translate(452,78)"/>
<path d="M0 0 C2 1 2 1 2 1 Z " fill="#FFFFFF" transform="translate(360,74)"/>
<path d="M0 0 C2 1 2 1 2 1 Z " fill="#FFFFFF" transform="translate(91,71)"/>
<path d="M0 0 C2 1 2 1 2 1 Z " fill="#FFFFFF" transform="translate(347,68)"/>
<path d="M0 0 C2 1 2 1 2 1 Z " fill="#D4D4D4" transform="translate(107,64)"/>
<path d="M0 0 C2 1 2 1 2 1 Z " fill="#FFFFFF" transform="translate(413,62)"/>
<path d="M0 0 C2 1 2 1 2 1 Z " fill="#FFFFFF" transform="translate(120,59)"/>
<path d="M0 0 C2 1 2 1 2 1 Z " fill="#FFFFFF" transform="translate(204,58)"/>
<path d="" fill="#FFFFFF" transform="translate(0,0)"/>
<path d="M0 0 C2 1 2 1 2 1 Z " fill="#FFFFFF" transform="translate(147,48)"/>
<path d="M0 0 C2 1 2 1 2 1 Z " fill="#FFFFFF" transform="translate(237,44)"/>
<path d="" fill="#FFFFFF" transform="translate(0,0)"/>
<path d="M0 0 C2 1 2 1 2 1 Z " fill="#D4FFFF" transform="translate(356,39)"/>
<path d="" fill="#FFFFFF" transform="translate(0,0)"/>
<path d="M0 0 C2 1 2 1 2 1 Z " fill="#DFDFDF" transform="translate(192,30)"/>
<path d="M0 0 C2 1 2 1 2 1 Z " fill="#FFFFFF" transform="translate(317,22)"/>
<path d="M0 0 C2 1 2 1 2 1 Z " fill="#FFFFFF" transform="translate(243,7)"/>
<path d="" fill="#FFFFFF" transform="translate(0,0)"/>
<path d="" fill="#FFFFFF" transform="translate(0,0)"/>
<path d="" fill="#FFFFFF" transform="translate(0,0)"/>
<path d="" fill="#FFFFFF" transform="translate(0,0)"/>
<path d="" fill="#FFFFFF" transform="translate(0,0)"/>
<path d="" fill="#FFFFFF" transform="translate(0,0)"/>
<path d="" fill="#FFFFFF" transform="translate(0,0)"/>
<path d="" fill="#FFFFFF" transform="translate(0,0)"/>
<path d="" fill="#FFFFFF" transform="translate(0,0)"/>
<path d="" fill="#FFFFFF" transform="translate(0,0)"/>
<path d="" fill="#FFFFFF" transform="translate(0,0)"/>
<path d="" fill="#FFFFFF" transform="translate(0,0)"/>
<path d="" fill="#FFFFFF" transform="translate(0,0)"/>
<path d="" fill="#FFFFFF" transform="translate(0,0)"/>
<path d="" fill="#FFFFFF" transform="translate(0,0)"/>
<path d="" fill="#FFFFFF" transform="translate(0,0)"/>
<path d="" fill="#FFFFFF" transform="translate(0,0)"/>
<path d="" fill="#FFFFFF" transform="translate(0,0)"/>
<path d="" fill="#FFFFFF" transform="translate(0,0)"/>
<path d="" fill="#FFFFFF" transform="translate(0,0)"/>
<path d="" fill="#FFFFFF" transform="translate(0,0)"/>
<path d="" fill="#FFFFFF" transform="translate(0,0)"/>
<path d="" fill="#FFFFFF" transform="translate(0,0)"/>
<path d="" fill="#FFFFFF" transform="translate(0,0)"/>
<path d="" fill="#FFFFFF" transform="translate(0,0)"/>
<path d="" fill="#FFFFFF" transform="translate(0,0)"/>
<path d="" fill="#FFFFFF" transform="translate(0,0)"/>
<path d="" fill="#FFFFFF" transform="translate(0,0)"/>
<path d="" fill="#FFFFFF" transform="translate(0,0)"/>
<path d="" fill="#FFFFFF" transform="translate(0,0)"/>
<path d="" fill="#FFFFFF" transform="translate(0,0)"/>
<path d="" fill="#FFFFFF" transform="translate(0,0)"/>
<path d="" fill="#FFFFFF" transform="translate(0,0)"/>
<path d="" fill="#FFFFFF" transform="translate(0,0)"/>
<path d="" fill="#FFFFFF" transform="translate(0,0)"/>
<path d="" fill="#FFFFFF" transform="translate(0,0)"/>
<path d="" fill="#FFFFFF" transform="translate(0,0)"/>
<path d="" fill="#FFFFFF" transform="translate(0,0)"/>
<path d="" fill="#FFFFFF" transform="translate(0,0)"/>
<path d="" fill="#FFFFFF" transform="translate(0,0)"/>
<path d="" fill="#FFFFFF" transform="translate(0,0)"/>
<path d="" fill="#FFFFFF" transform="translate(0,0)"/>
<path d="" fill="#FFFFFF" transform="translate(0,0)"/>
<path d="" fill="#FFFFFF" transform="translate(0,0)"/>
<path d="" fill="#FFFFFF" transform="translate(0,0)"/>
<path d="" fill="#FFFFFF" transform="translate(0,0)"/>
<path d="" fill="#FFFFFF" transform="translate(0,0)"/>
<path d="" fill="#FFFFFF" transform="translate(0,0)"/>
<path d="" fill="#FFFFFF" transform="translate(0,0)"/>
<path d="" fill="#FFFFFF" transform="translate(0,0)"/>
<path d="" fill="#FFFFFF" transform="translate(0,0)"/>
<path d="" fill="#FFFFFF" transform="translate(0,0)"/>
<path d="" fill="#FFFFFF" transform="translate(0,0)"/>
<path d="" fill="#FFFFFF" transform="translate(0,0)"/>
<path d="" fill="#FFFFFF" transform="translate(0,0)"/>
<path d="" fill="#FFFFFF" transform="translate(0,0)"/>
<path d="" fill="#FFFFFF" transform="translate(0,0)"/>
<path d="" fill="#FFFFFF" transform="translate(0,0)"/>
<path d="" fill="#FFFFFF" transform="translate(0,0)"/>
<path d="" fill="#FFFFFF" transform="translate(0,0)"/>
<path d="" fill="#FFFFFF" transform="translate(0,0)"/>
<path d="" fill="#FFFFFF" transform="translate(0,0)"/>
<path d="" fill="#FFFFFF" transform="translate(0,0)"/>
<path d="" fill="#FFFFFF" transform="translate(0,0)"/>
<path d="" fill="#FFFFFF" transform="translate(0,0)"/>
<path d="" fill="#FFFFFF" transform="translate(0,0)"/>
<path d="" fill="#FFFFFF" transform="translate(0,0)"/>
<path d="" fill="#FFFFFF" transform="translate(0,0)"/>
<path d="" fill="#BFBFBF" transform="translate(0,0)"/>
<path d="" fill="#FFFFFF" transform="translate(0,0)"/>
<path d="" fill="#BFBFBF" transform="translate(0,0)"/>
<path d="" fill="#FFFFFF" transform="translate(0,0)"/>
<path d="" fill="#FFFFFF" transform="translate(0,0)"/>
<path d="" fill="#FFFFFF" transform="translate(0,0)"/>
<path d="" fill="#FFFFFF" transform="translate(0,0)"/>
<path d="" fill="#FFFFFF" transform="translate(0,0)"/>
<path d="" fill="#FFFFFF" transform="translate(0,0)"/>
<path d="" fill="#FFFFFF" transform="translate(0,0)"/>
<path d="" fill="#FFFFFF" transform="translate(0,0)"/>
<path d="" fill="#CCCCCC" transform="translate(0,0)"/>
<path d="" fill="#FFFFFF" transform="translate(0,0)"/>
<path d="" fill="#FFFFFF" transform="translate(0,0)"/>
<path d="" fill="#FFFFFF" transform="translate(0,0)"/>
<path d="" fill="#FFFFFF" transform="translate(0,0)"/>
<path d="" fill="#FFFFFF" transform="translate(0,0)"/>
<path d="" fill="#FFFFFF" transform="translate(0,0)"/>
<path d="" fill="#FFFFFF" transform="translate(0,0)"/>
<path d="" fill="#FFFFFF" transform="translate(0,0)"/>
<path d="" fill="#FFFFFF" transform="translate(0,0)"/>
<path d="" fill="#FFFFFF" transform="translate(0,0)"/>
<path d="" fill="#FFFFFF" transform="translate(0,0)"/>
<path d="" fill="#FFFFFF" transform="translate(0,0)"/>
<path d="" fill="#FFFFFF" transform="translate(0,0)"/>
<path d="" fill="#FFFFFF" transform="translate(0,0)"/>
<path d="" fill="#FFFFFF" transform="translate(0,0)"/>
<path d="" fill="#FFFFFF" transform="translate(0,0)"/>
<path d="" fill="#FFFFFF" transform="translate(0,0)"/>
<path d="" fill="#FFFFFF" transform="translate(0,0)"/>
<path d="" fill="#FFFFFF" transform="translate(0,0)"/>
<path d="" fill="#FFFFFF" transform="translate(0,0)"/>
<path d="" fill="#FFFFFF" transform="translate(0,0)"/>
<path d="" fill="#FFFFFF" transform="translate(0,0)"/>
<path d="" fill="#FFFFFF" transform="translate(0,0)"/>
<path d="" fill="#FFFFFF" transform="translate(0,0)"/>
<path d="" fill="#FFFFFF" transform="translate(0,0)"/>
<path d="" fill="#FFFFFF" transform="translate(0,0)"/>
<path d="" fill="#FFFFFF" transform="translate(0,0)"/>
<path d="" fill="#FFFFFF" transform="translate(0,0)"/>
<path d="" fill="#FFFFFF" transform="translate(0,0)"/>
<path d="" fill="#FFFFFF" transform="translate(0,0)"/>
<path d="" fill="#FFFFFF" transform="translate(0,0)"/>
<path d="" fill="#FFFFFF" transform="translate(0,0)"/>
<path d="" fill="#FFFFFF" transform="translate(0,0)"/>
<path d="" fill="#FFFFFF" transform="translate(0,0)"/>
<path d="" fill="#FFFFFF" transform="translate(0,0)"/>
<path d="" fill="#FFFFFF" transform="translate(0,0)"/>
<path d="" fill="#FFFFFF" transform="translate(0,0)"/>
<path d="" fill="#FFAAAA" transform="translate(0,0)"/>
<path d="" fill="#FFFFFF" transform="translate(0,0)"/>
<path d="" fill="#FFFFFF" transform="translate(0,0)"/>
<path d="" fill="#FFFFFF" transform="translate(0,0)"/>
<path d="" fill="#FFFFFF" transform="translate(0,0)"/>
<path d="" fill="#FFFFFF" transform="translate(0,0)"/>
<path d="" fill="#FFFFFF" transform="translate(0,0)"/>
<path d="" fill="#FFFFFF" transform="translate(0,0)"/>
<path d="" fill="#FFFFFF" transform="translate(0,0)"/>
<path d="" fill="#FFFFFF" transform="translate(0,0)"/>
<path d="" fill="#FFFFFF" transform="translate(0,0)"/>
<path d="" fill="#AAAAAA" transform="translate(0,0)"/>
<path d="" fill="#FFFFFF" transform="translate(0,0)"/>
<path d="" fill="#FFFFFF" transform="translate(0,0)"/>
<path d="" fill="#FFFFFF" transform="translate(0,0)"/>
<path d="" fill="#FFFFFF" transform="translate(0,0)"/>
<path d="" fill="#FFFFFF" transform="translate(0,0)"/>
<path d="" fill="#FFFFFF" transform="translate(0,0)"/>
<path d="" fill="#D4D4D4" transform="translate(0,0)"/>
<path d="" fill="#FFFFFF" transform="translate(0,0)"/>
<path d="" fill="#FFFFFF" transform="translate(0,0)"/>
<path d="" fill="#FFFFFF" transform="translate(0,0)"/>
<path d="" fill="#FFFFFF" transform="translate(0,0)"/>
<path d="" fill="#FFFFFF" transform="translate(0,0)"/>
<path d="" fill="#FFFFFF" transform="translate(0,0)"/>
<path d="" fill="#FFFFFF" transform="translate(0,0)"/>
<path d="" fill="#FFFFFF" transform="translate(0,0)"/>
<path d="" fill="#FFFFFF" transform="translate(0,0)"/>
<path d="" fill="#FFFFFF" transform="translate(0,0)"/>
<path d="" fill="#FFFFFF" transform="translate(0,0)"/>
<path d="" fill="#FFFFFF" transform="translate(0,0)"/>
<path d="" fill="#FFFFFF" transform="translate(0,0)"/>
<path d="" fill="#FFFFFF" transform="translate(0,0)"/>
<path d="" fill="#FFFFFF" transform="translate(0,0)"/>
<path d="" fill="#FFFFFF" transform="translate(0,0)"/>
<path d="" fill="#FFFFFF" transform="translate(0,0)"/>
<path d="" fill="#FFFFFF" transform="translate(0,0)"/>
<path d="" fill="#FFFFFF" transform="translate(0,0)"/>
<path d="" fill="#FFFFFF" transform="translate(0,0)"/>
<path d="" fill="#FFFFFF" transform="translate(0,0)"/>
<path d="" fill="#FFFFFF" transform="translate(0,0)"/>
<path d="" fill="#FFFFFF" transform="translate(0,0)"/>
<path d="" fill="#FFFFFF" transform="translate(0,0)"/>
<path d="" fill="#FFFFFF" transform="translate(0,0)"/>
<path d="" fill="#FFFFFF" transform="translate(0,0)"/>
<path d="" fill="#FFFFFF" transform="translate(0,0)"/>
<path d="" fill="#FFFFFF" transform="translate(0,0)"/>
<path d="" fill="#FFFFFF" transform="translate(0,0)"/>
<path d="" fill="#FFFFFF" transform="translate(0,0)"/>
<path d="" fill="#FFFFFF" transform="translate(0,0)"/>
<path d="" fill="#FFFFFF" transform="translate(0,0)"/>
<path d="" fill="#FFFFFF" transform="translate(0,0)"/>
<path d="" fill="#FFFFFF" transform="translate(0,0)"/>
<path d="" fill="#FFFFFF" transform="translate(0,0)"/>
<path d="" fill="#FFFFFF" transform="translate(0,0)"/>
<path d="" fill="#FFFFFF" transform="translate(0,0)"/>
<path d="" fill="#FFFFFF" transform="translate(0,0)"/>
<path d="" fill="#FFFFFF" transform="translate(0,0)"/>
<path d="" fill="#FFFFFF" transform="translate(0,0)"/>
<path d="" fill="#FFFFFF" transform="translate(0,0)"/>
<path d="" fill="#FFFFFF" transform="translate(0,0)"/>
<path d="" fill="#FFFFFF" transform="translate(0,0)"/>
<path d="" fill="#FFFFFF" transform="translate(0,0)"/>
<path d="" fill="#FFFFFF" transform="translate(0,0)"/>
<path d="" fill="#FFFFFF" transform="translate(0,0)"/>
<path d="" fill="#FFFFFF" transform="translate(0,0)"/>
<path d="" fill="#FFFFFF" transform="translate(0,0)"/>
<path d="" fill="#FFFFFF" transform="translate(0,0)"/>
<path d="" fill="#FFFFFF" transform="translate(0,0)"/>
<path d="" fill="#FFFFFF" transform="translate(0,0)"/>
<path d="" fill="#FFFFFF" transform="translate(0,0)"/>
<path d="" fill="#FFFFFF" transform="translate(0,0)"/>
<path d="" fill="#FFFFFF" transform="translate(0,0)"/>
<path d="" fill="#FFFFFF" transform="translate(0,0)"/>
<path d="" fill="#FFFFFF" transform="translate(0,0)"/>
<path d="" fill="#FFFFFF" transform="translate(0,0)"/>
<path d="" fill="#FFFFFF" transform="translate(0,0)"/>
<path d="" fill="#FFFFFF" transform="translate(0,0)"/>
<path d="" fill="#FFFFFF" transform="translate(0,0)"/>
<path d="" fill="#FFFFFF" transform="translate(0,0)"/>
<path d="" fill="#FFFFFF" transform="translate(0,0)"/>
<path d="" fill="#FFFFFF" transform="translate(0,0)"/>
<path d="" fill="#FFFFFF" transform="translate(0,0)"/>
<path d="" fill="#FFFFFF" transform="translate(0,0)"/>
<path d="" fill="#FFFFFF" transform="translate(0,0)"/>
<path d="" fill="#FFFFFF" transform="translate(0,0)"/>
<path d="" fill="#FFFFFF" transform="translate(0,0)"/>
<path d="" fill="#FFFFFF" transform="translate(0,0)"/>
<path d="" fill="#FFFFFF" transform="translate(0,0)"/>
<path d="" fill="#FFFFFF" transform="translate(0,0)"/>
<path d="" fill="#FFFFFF" transform="translate(0,0)"/>
<path d="" fill="#FFFFFF" transform="translate(0,0)"/>
<path d="" fill="#FFFFFF" transform="translate(0,0)"/>
<path d="" fill="#FFFFFF" transform="translate(0,0)"/>
<path d="" fill="#FFFFFF" transform="translate(0,0)"/>
<path d="" fill="#FFFFFF" transform="translate(0,0)"/>
<path d="" fill="#FFFFFF" transform="translate(0,0)"/>
<path d="" fill="#FFFFFF" transform="translate(0,0)"/>
<path d="" fill="#FFFFFF" transform="translate(0,0)"/>
<path d="" fill="#FFFFFF" transform="translate(0,0)"/>
<path d="" fill="#FFFFFF" transform="translate(0,0)"/>
<path d="" fill="#FFFFFF" transform="translate(0,0)"/>
<path d="" fill="#FFFFFF" transform="translate(0,0)"/>
<path d="" fill="#FFFFFF" transform="translate(0,0)"/>
<path d="" fill="#FFFFFF" transform="translate(0,0)"/>
<path d="" fill="#FFFFFF" transform="translate(0,0)"/>
<path d="" fill="#FFFFFF" transform="translate(0,0)"/>
<path d="" fill="#FFFFFF" transform="translate(0,0)"/>
<path d="" fill="#FFFFFF" transform="translate(0,0)"/>
<path d="" fill="#FFFFFF" transform="translate(0,0)"/>
<path d="" fill="#FFFFFF" transform="translate(0,0)"/>
<path d="" fill="#FFFFFF" transform="translate(0,0)"/>
<path d="" fill="#FFFFFF" transform="translate(0,0)"/>
<path d="" fill="#FFFFFF" transform="translate(0,0)"/>
<path d="" fill="#FFFFFF" transform="translate(0,0)"/>
<path d="" fill="#FFFFFF" transform="translate(0,0)"/>
<path d="" fill="#FFFFFF" transform="translate(0,0)"/>
<path d="" fill="#FFFFFF" transform="translate(0,0)"/>
<path d="" fill="#FFFFFF" transform="translate(0,0)"/>
<path d="" fill="#FFFFFF" transform="translate(0,0)"/>
<path d="" fill="#FFFFFF" transform="translate(0,0)"/>
<path d="" fill="#FFFFFF" transform="translate(0,0)"/>
<path d="" fill="#FFFFFF" transform="translate(0,0)"/>
<path d="" fill="#FFFFFF" transform="translate(0,0)"/>
<path d="" fill="#FFFFFF" transform="translate(0,0)"/>
<path d="" fill="#FFFFFF" transform="translate(0,0)"/>
<path d="" fill="#FFFFFF" transform="translate(0,0)"/>
<path d="" fill="#FFFFFF" transform="translate(0,0)"/>
<path d="" fill="#FFFFFF" transform="translate(0,0)"/>
<path d="" fill="#FFFFFF" transform="translate(0,0)"/>
<path d="" fill="#FFFFFF" transform="translate(0,0)"/>
<path d="" fill="#FFFFFF" transform="translate(0,0)"/>
<path d="" fill="#FFFFFF" transform="translate(0,0)"/>
<path d="" fill="#FFFFFF" transform="translate(0,0)"/>
<path d="" fill="#FFFFFF" transform="translate(0,0)"/>
<path d="" fill="#FFFFFF" transform="translate(0,0)"/>
<path d="" fill="#FFFFFF" transform="translate(0,0)"/>
<path d="" fill="#FFFFFF" transform="translate(0,0)"/>
<path d="" fill="#FFFFFF" transform="translate(0,0)"/>
<path d="" fill="#FFFFFF" transform="translate(0,0)"/>
<path d="" fill="#FFFFFF" transform="translate(0,0)"/>
<path d="" fill="#FFFFFF" transform="translate(0,0)"/>
<path d="" fill="#FFFFFF" transform="translate(0,0)"/>
<path d="" fill="#FFFFFF" transform="translate(0,0)"/>
<path d="" fill="#FFFFFF" transform="translate(0,0)"/>
<path d="" fill="#FFFFFF" transform="translate(0,0)"/>
<path d="" fill="#FFFFFF" transform="translate(0,0)"/>
<path d="" fill="#FFFFFF" transform="translate(0,0)"/>
<path d="" fill="#FFFFFF" transform="translate(0,0)"/>
<path d="" fill="#FFFFFF" transform="translate(0,0)"/>
<path d="" fill="#FFFFFF" transform="translate(0,0)"/>
<path d="" fill="#FFFFFF" transform="translate(0,0)"/>
<path d="" fill="#FFFFFF" transform="translate(0,0)"/>
<path d="" fill="#FFFFFF" transform="translate(0,0)"/>
<path d="" fill="#FFFFFF" transform="translate(0,0)"/>
<path d="" fill="#FFFFFF" transform="translate(0,0)"/>
<path d="" fill="#FFFFFF" transform="translate(0,0)"/>
<path d="" fill="#FFFFFF" transform="translate(0,0)"/>
<path d="" fill="#FFFFFF" transform="translate(0,0)"/>
<path d="" fill="#FFFFFF" transform="translate(0,0)"/>
<path d="" fill="#FFFFFF" transform="translate(0,0)"/>
<path d="" fill="#FFFFFF" transform="translate(0,0)"/>
<path d="" fill="#FFFFFF" transform="translate(0,0)"/>
<path d="" fill="#FFFFFF" transform="translate(0,0)"/>
<path d="" fill="#FFFFFF" transform="translate(0,0)"/>
<path d="" fill="#FFFFFF" transform="translate(0,0)"/>
<path d="" fill="#FFFFFF" transform="translate(0,0)"/>
<path d="" fill="#FFFFFF" transform="translate(0,0)"/>
<path d="" fill="#FFFFFF" transform="translate(0,0)"/>
<path d="" fill="#FFFFFF" transform="translate(0,0)"/>
<path d="" fill="#FFFFFF" transform="translate(0,0)"/>
<path d="" fill="#FFFFFF" transform="translate(0,0)"/>
<path d="" fill="#FFFFFF" transform="translate(0,0)"/>
<path d="" fill="#FFFFFF" transform="translate(0,0)"/>
<path d="" fill="#FFFFFF" transform="translate(0,0)"/>
<path d="" fill="#FFFFFF" transform="translate(0,0)"/>
<path d="" fill="#FFFFFF" transform="translate(0,0)"/>
<path d="" fill="#FFFFFF" transform="translate(0,0)"/>
<path d="" fill="#FFFFFF" transform="translate(0,0)"/>
<path d="" fill="#FFFFFF" transform="translate(0,0)"/>
<path d="" fill="#FFFFFF" transform="translate(0,0)"/>
<path d="" fill="#FFFFFF" transform="translate(0,0)"/>
<path d="" fill="#FFFFFF" transform="translate(0,0)"/>
<path d="" fill="#FFFFFF" transform="translate(0,0)"/>
<path d="" fill="#FFFFFF" transform="translate(0,0)"/>
<path d="" fill="#FFFFFF" transform="translate(0,0)"/>
<path d="" fill="#FFFFFF" transform="translate(0,0)"/>
<path d="" fill="#FFFFFF" transform="translate(0,0)"/>
<path d="" fill="#FFFFFF" transform="translate(0,0)"/>
<path d="" fill="#FFFFFF" transform="translate(0,0)"/>
<path d="" fill="#FFFFFF" transform="translate(0,0)"/>
<path d="" fill="#FFFFFF" transform="translate(0,0)"/>
<path d="" fill="#FFFFFF" transform="translate(0,0)"/>
<path d="" fill="#FFFFFF" transform="translate(0,0)"/>
<path d="" fill="#FFFFFF" transform="translate(0,0)"/>
<path d="" fill="#FFFFFF" transform="translate(0,0)"/>
<path d="" fill="#FFFFFF" transform="translate(0,0)"/>
<path d="" fill="#FFFFFF" transform="translate(0,0)"/>
<path d="" fill="#FFFFFF" transform="translate(0,0)"/>
<path d="" fill="#FFFFFF" transform="translate(0,0)"/>
<path d="" fill="#FFFFFF" transform="translate(0,0)"/>
<path d="" fill="#FFFFFF" transform="translate(0,0)"/>
<path d="" fill="#FFFFFF" transform="translate(0,0)"/>
<path d="" fill="#FFFFFF" transform="translate(0,0)"/>
<path d="" fill="#FFFFFF" transform="translate(0,0)"/>
<path d="" fill="#FFFFFF" transform="translate(0,0)"/>
<path d="" fill="#FFFFFF" transform="translate(0,0)"/>
<path d="" fill="#FFFFFF" transform="translate(0,0)"/>
<path d="" fill="#FFFFFF" transform="translate(0,0)"/>
<path d="" fill="#FFFFFF" transform="translate(0,0)"/>
<path d="" fill="#FFFFFF" transform="translate(0,0)"/>
<path d="" fill="#FFFFFF" transform="translate(0,0)"/>
<path d="" fill="#FFFFFF" transform="translate(0,0)"/>
<path d="" fill="#FFFFFF" transform="translate(0,0)"/>
<path d="" fill="#FFFFFF" transform="translate(0,0)"/>
<path d="" fill="#FFFFFF" transform="translate(0,0)"/>
<path d="" fill="#FFFFFF" transform="translate(0,0)"/>
<path d="" fill="#FFFFFF" transform="translate(0,0)"/>
<path d="" fill="#FFFFFF" transform="translate(0,0)"/>
<path d="" fill="#FFFFFF" transform="translate(0,0)"/>
<path d="" fill="#FFFFFF" transform="translate(0,0)"/>
<path d="" fill="#FFFFFF" transform="translate(0,0)"/>
<path d="" fill="#FFFFFF" transform="translate(0,0)"/>
<path d="" fill="#FFFFFF" transform="translate(0,0)"/>
<path d="" fill="#FFFFFF" transform="translate(0,0)"/>
<path d="" fill="#FFFFFF" transform="translate(0,0)"/>
<path d="" fill="#FFFFFF" transform="translate(0,0)"/>
<path d="" fill="#FFFFFF" transform="translate(0,0)"/>
<path d="" fill="#FFFFFF" transform="translate(0,0)"/>
<path d="" fill="#FFFFFF" transform="translate(0,0)"/>
<path d="" fill="#FFFFFF" transform="translate(0,0)"/>
<path d="" fill="#FFFFFF" transform="translate(0,0)"/>
<path d="" fill="#FFFFFF" transform="translate(0,0)"/>
<path d="" fill="#FFFFFF" transform="translate(0,0)"/>
<path d="" fill="#FFFFFF" transform="translate(0,0)"/>
<path d="" fill="#FFFFFF" transform="translate(0,0)"/>
<path d="" fill="#FFFFFF" transform="translate(0,0)"/>
<path d="" fill="#FFFFFF" transform="translate(0,0)"/>
<path d="" fill="#FFFFFF" transform="translate(0,0)"/>
<path d="" fill="#FFFFFF" transform="translate(0,0)"/>
<path d="" fill="#FFFFFF" transform="translate(0,0)"/>
<path d="" fill="#FFFFFF" transform="translate(0,0)"/>
<path d="" fill="#FFFFFF" transform="translate(0,0)"/>
<path d="" fill="#FFFFFF" transform="translate(0,0)"/>
<path d="" fill="#FFFFFF" transform="translate(0,0)"/>
<path d="" fill="#FFFFFF" transform="translate(0,0)"/>
<path d="" fill="#FFFFFF" transform="translate(0,0)"/>
<path d="" fill="#FFFFFF" transform="translate(0,0)"/>
<path d="" fill="#FFFFFF" transform="translate(0,0)"/>
<path d="" fill="#FFFFFF" transform="translate(0,0)"/>
<path d="" fill="#FFFFFF" transform="translate(0,0)"/>
<path d="" fill="#FFFFFF" transform="translate(0,0)"/>
<path d="" fill="#FFFFFF" transform="translate(0,0)"/>
<path d="" fill="#FFFFFF" transform="translate(0,0)"/>
<path d="" fill="#FFFFFF" transform="translate(0,0)"/>
<path d="" fill="#FFFFFF" transform="translate(0,0)"/>
<path d="" fill="#FFFFFF" transform="translate(0,0)"/>
<path d="" fill="#FFFFFF" transform="translate(0,0)"/>
<path d="" fill="#FFFFFF" transform="translate(0,0)"/>
<path d="" fill="#FFFFFF" transform="translate(0,0)"/>
<path d="" fill="#FFFFFF" transform="translate(0,0)"/>
<path d="" fill="#FFFFFF" transform="translate(0,0)"/>
<path d="" fill="#FFFFFF" transform="translate(0,0)"/>
<path d="" fill="#FFFFFF" transform="translate(0,0)"/>
<path d="" fill="#FFFFFF" transform="translate(0,0)"/>
<path d="" fill="#FFFFFF" transform="translate(0,0)"/>
<path d="" fill="#FFFFFF" transform="translate(0,0)"/>
<path d="" fill="#FFFFFF" transform="translate(0,0)"/>
<path d="" fill="#FFFFFF" transform="translate(0,0)"/>
<path d="" fill="#FFFFFF" transform="translate(0,0)"/>
<path d="" fill="#FFFFFF" transform="translate(0,0)"/>
<path d="" fill="#FFFFFF" transform="translate(0,0)"/>
<path d="" fill="#FFFFFF" transform="translate(0,0)"/>
<path d="" fill="#FFFFFF" transform="translate(0,0)"/>
<path d="" fill="#FFFFFF" transform="translate(0,0)"/>
<path d="" fill="#FFFFFF" transform="translate(0,0)"/>
<path d="" fill="#FFFFFF" transform="translate(0,0)"/>
<path d="" fill="#FFFFFF" transform="translate(0,0)"/>
<path d="" fill="#FFFFFF" transform="translate(0,0)"/>
<path d="" fill="#FFFFFF" transform="translate(0,0)"/>
<path d="" fill="#FFFFFF" transform="translate(0,0)"/>
<path d="" fill="#FFFFFF" transform="translate(0,0)"/>
<path d="" fill="#FFFFFF" transform="translate(0,0)"/>
<path d="" fill="#FFFFFF" transform="translate(0,0)"/>
<path d="" fill="#FFFFFF" transform="translate(0,0)"/>
<path d="" fill="#FFFFFF" transform="translate(0,0)"/>
<path d="" fill="#FFFFFF" transform="translate(0,0)"/>
<path d="" fill="#FFFFFF" transform="translate(0,0)"/>
<path d="" fill="#FFFFFF" transform="translate(0,0)"/>
<path d="" fill="#FFFFFF" transform="translate(0,0)"/>
<path d="" fill="#FFFFFF" transform="translate(0,0)"/>
<path d="" fill="#FFFFFF" transform="translate(0,0)"/>
<path d="" fill="#FFFFFF" transform="translate(0,0)"/>
<path d="" fill="#FFFFFF" transform="translate(0,0)"/>
<path d="" fill="#FFFFFF" transform="translate(0,0)"/>
<path d="" fill="#FFFFFF" transform="translate(0,0)"/>
<path d="" fill="#FFFFFF" transform="translate(0,0)"/>
<path d="" fill="#FFFFFF" transform="translate(0,0)"/>
<path d="" fill="#FFFFFF" transform="translate(0,0)"/>
<path d="" fill="#FFFFFF" transform="translate(0,0)"/>
<path d="" fill="#FFFFFF" transform="translate(0,0)"/>
<path d="" fill="#FFFFFF" transform="translate(0,0)"/>
<path d="" fill="#FFFFFF" transform="translate(0,0)"/>
<path d="" fill="#FFFFFF" transform="translate(0,0)"/>
<path d="" fill="#AAAAAA" transform="translate(0,0)"/>
<path d="" fill="#AAAAAA" transform="translate(0,0)"/>
<path d="" fill="#FFFFFF" transform="translate(0,0)"/>
<path d="" fill="#FFFFFF" transform="translate(0,0)"/>
<path d="" fill="#FFFFFF" transform="translate(0,0)"/>
<path d="" fill="#FFFFFF" transform="translate(0,0)"/>
<path d="" fill="#FFFFFF" transform="translate(0,0)"/>
<path d="" fill="#FFFFFF" transform="translate(0,0)"/>
<path d="" fill="#FFFFFF" transform="translate(0,0)"/>
<path d="" fill="#FFFFFF" transform="translate(0,0)"/>
<path d="" fill="#FFFFFF" transform="translate(0,0)"/>
<path d="" fill="#FFFFFF" transform="translate(0,0)"/>
<path d="" fill="#FFFFFF" transform="translate(0,0)"/>
<path d="" fill="#FFFFFF" transform="translate(0,0)"/>
<path d="" fill="#FFFFFF" transform="translate(0,0)"/>
<path d="" fill="#FFFFFF" transform="translate(0,0)"/>
<path d="" fill="#FFFFFF" transform="translate(0,0)"/>
<path d="" fill="#FFFFFF" transform="translate(0,0)"/>
<path d="" fill="#FFFFFF" transform="translate(0,0)"/>
<path d="" fill="#FFFFFF" transform="translate(0,0)"/>
<path d="" fill="#D4FFD4" transform="translate(0,0)"/>
<path d="" fill="#FFFFFF" transform="translate(0,0)"/>
<path d="" fill="#FFFFFF" transform="translate(0,0)"/>
<path d="" fill="#FFFFFF" transform="translate(0,0)"/>
<path d="" fill="#FFFFFF" transform="translate(0,0)"/>
<path d="" fill="#FFFFFF" transform="translate(0,0)"/>
<path d="" fill="#FFFFFF" transform="translate(0,0)"/>
<path d="" fill="#FFFFFF" transform="translate(0,0)"/>
<path d="" fill="#FFFFFF" transform="translate(0,0)"/>
<path d="" fill="#FFFFFF" transform="translate(0,0)"/>
<path d="" fill="#FFFFFF" transform="translate(0,0)"/>
<path d="" fill="#FFFFFF" transform="translate(0,0)"/>
<path d="" fill="#AAAAAA" transform="translate(0,0)"/>
<path d="" fill="#FFFFFF" transform="translate(0,0)"/>
<path d="" fill="#FFFFFF" transform="translate(0,0)"/>
<path d="" fill="#FFFFFF" transform="translate(0,0)"/>
<path d="" fill="#FFFFFF" transform="translate(0,0)"/>
<path d="" fill="#FFFFFF" transform="translate(0,0)"/>
<path d="" fill="#FFFFFF" transform="translate(0,0)"/>
<path d="" fill="#FFFFFF" transform="translate(0,0)"/>
<path d="" fill="#FFFFFF" transform="translate(0,0)"/>
<path d="" fill="#FFFFFF" transform="translate(0,0)"/>
<path d="" fill="#FFFFFF" transform="translate(0,0)"/>
<path d="" fill="#FFFFFF" transform="translate(0,0)"/>
<path d="" fill="#FFFFFF" transform="translate(0,0)"/>
<path d="" fill="#FFFFFF" transform="translate(0,0)"/>
<path d="" fill="#FFFFFF" transform="translate(0,0)"/>
<path d="" fill="#FFFFFF" transform="translate(0,0)"/>
<path d="" fill="#FFFFFF" transform="translate(0,0)"/>
<path d="" fill="#FFFFFF" transform="translate(0,0)"/>
<path d="" fill="#FFFFFF" transform="translate(0,0)"/>
<path d="" fill="#FFFFFF" transform="translate(0,0)"/>
<path d="" fill="#FFFFFF" transform="translate(0,0)"/>
<path d="" fill="#FFFFFF" transform="translate(0,0)"/>
<path d="" fill="#FFFFFF" transform="translate(0,0)"/>
<path d="" fill="#FFFFFF" transform="translate(0,0)"/>
<path d="" fill="#FFFFFF" transform="translate(0,0)"/>
<path d="" fill="#FFFFFF" transform="translate(0,0)"/>
<path d="" fill="#FFFFFF" transform="translate(0,0)"/>
<path d="" fill="#FFFFFF" transform="translate(0,0)"/>
<path d="" fill="#FFFFFF" transform="translate(0,0)"/>
<path d="" fill="#FFFFFF" transform="translate(0,0)"/>
<path d="" fill="#FFFFFF" transform="translate(0,0)"/>
<path d="" fill="#FFFFFF" transform="translate(0,0)"/>
<path d="" fill="#FFFFFF" transform="translate(0,0)"/>
<path d="" fill="#FFFFFF" transform="translate(0,0)"/>
<path d="" fill="#FFFFFF" transform="translate(0,0)"/>
<path d="" fill="#FFFFFF" transform="translate(0,0)"/>
<path d="" fill="#FFFFFF" transform="translate(0,0)"/>
<path d="" fill="#FFFFFF" transform="translate(0,0)"/>
<path d="" fill="#FFFFFF" transform="translate(0,0)"/>
<path d="" fill="#FFFFFF" transform="translate(0,0)"/>
<path d="" fill="#FFFFFF" transform="translate(0,0)"/>
<path d="" fill="#FFFFFF" transform="translate(0,0)"/>
<path d="" fill="#FFFFFF" transform="translate(0,0)"/>
<path d="" fill="#FFFFFF" transform="translate(0,0)"/>
<path d="" fill="#FFFFFF" transform="translate(0,0)"/>
<path d="" fill="#FFFFFF" transform="translate(0,0)"/>
<path d="" fill="#FFFFFF" transform="translate(0,0)"/>
<path d="" fill="#FFFFFF" transform="translate(0,0)"/>
<path d="" fill="#FFFFFF" transform="translate(0,0)"/>
<path d="" fill="#FFFFFF" transform="translate(0,0)"/>
<path d="" fill="#FFFFFF" transform="translate(0,0)"/>
<path d="" fill="#FFFFFF" transform="translate(0,0)"/>
<path d="" fill="#FFFFFF" transform="translate(0,0)"/>
<path d="" fill="#FFFFFF" transform="translate(0,0)"/>
<path d="" fill="#FFFFFF" transform="translate(0,0)"/>
<path d="" fill="#FFFFFF" transform="translate(0,0)"/>
<path d="" fill="#FFFFFF" transform="translate(0,0)"/>
<path d="" fill="#FFFFFF" transform="translate(0,0)"/>
<path d="" fill="#FFFFFF" transform="translate(0,0)"/>
<path d="" fill="#FFFFFF" transform="translate(0,0)"/>
<path d="" fill="#FFFFFF" transform="translate(0,0)"/>
<path d="" fill="#FFFFFF" transform="translate(0,0)"/>
<path d="" fill="#FFFFFF" transform="translate(0,0)"/>
<path d="" fill="#FFFFFF" transform="translate(0,0)"/>
<path d="" fill="#FFFFFF" transform="translate(0,0)"/>
<path d="" fill="#BFBFBF" transform="translate(0,0)"/>
<path d="" fill="#FFFFFF" transform="translate(0,0)"/>
<path d="" fill="#FFFFFF" transform="translate(0,0)"/>
<path d="" fill="#FFFFFF" transform="translate(0,0)"/>
<path d="" fill="#FFFFFF" transform="translate(0,0)"/>
<path d="" fill="#FFFFFF" transform="translate(0,0)"/>
<path d="" fill="#FFFFFF" transform="translate(0,0)"/>
<path d="" fill="#FFFFFF" transform="translate(0,0)"/>
<path d="" fill="#FFFFFF" transform="translate(0,0)"/>
<path d="" fill="#FFFFFF" transform="translate(0,0)"/>
<path d="" fill="#FFFFFF" transform="translate(0,0)"/>
<path d="" fill="#FFFFFF" transform="translate(0,0)"/>
<path d="" fill="#FFFFFF" transform="translate(0,0)"/>
<path d="" fill="#FFFFFF" transform="translate(0,0)"/>
<path d="" fill="#FFFFFF" transform="translate(0,0)"/>
<path d="" fill="#FFFFFF" transform="translate(0,0)"/>
<path d="" fill="#FFFFFF" transform="translate(0,0)"/>
<path d="" fill="#FFFFFF" transform="translate(0,0)"/>
<path d="" fill="#FFFFFF" transform="translate(0,0)"/>
<path d="" fill="#FFFFFF" transform="translate(0,0)"/>
<path d="" fill="#FFFFFF" transform="translate(0,0)"/>
<path d="" fill="#FFFFFF" transform="translate(0,0)"/>
<path d="" fill="#FFFFFF" transform="translate(0,0)"/>
<path d="" fill="#FFFFFF" transform="translate(0,0)"/>
<path d="" fill="#FFFFFF" transform="translate(0,0)"/>
<path d="" fill="#FFFFFF" transform="translate(0,0)"/>
<path d="" fill="#FFFFFF" transform="translate(0,0)"/>
<path d="" fill="#FFFFFF" transform="translate(0,0)"/>
<path d="" fill="#FFFFFF" transform="translate(0,0)"/>
<path d="" fill="#FFFFFF" transform="translate(0,0)"/>
<path d="" fill="#FFFFFF" transform="translate(0,0)"/>
<path d="" fill="#FFFFFF" transform="translate(0,0)"/>
<path d="" fill="#FFFFFF" transform="translate(0,0)"/>
<path d="" fill="#FFFFFF" transform="translate(0,0)"/>
<path d="" fill="#FFFFFF" transform="translate(0,0)"/>
<path d="" fill="#FFFFFF" transform="translate(0,0)"/>
<path d="" fill="#FFFFFF" transform="translate(0,0)"/>
<path d="" fill="#FFFFFF" transform="translate(0,0)"/>
<path d="" fill="#FFFFFF" transform="translate(0,0)"/>
<path d="" fill="#FFFFFF" transform="translate(0,0)"/>
<path d="" fill="#FFFFFF" transform="translate(0,0)"/>
<path d="" fill="#FFFFFF" transform="translate(0,0)"/>
<path d="" fill="#FFFFFF" transform="translate(0,0)"/>
<path d="" fill="#FFFFFF" transform="translate(0,0)"/>
<path d="" fill="#FFFFFF" transform="translate(0,0)"/>
<path d="" fill="#FFFFFF" transform="translate(0,0)"/>
<path d="" fill="#FFFFFF" transform="translate(0,0)"/>
<path d="" fill="#FFFFFF" transform="translate(0,0)"/>
<path d="" fill="#FFFFFF" transform="translate(0,0)"/>
<path d="" fill="#FFFFFF" transform="translate(0,0)"/>
<path d="" fill="#FFFFFF" transform="translate(0,0)"/>
<path d="" fill="#FFFFFF" transform="translate(0,0)"/>
<path d="" fill="#FFFFFF" transform="translate(0,0)"/>
<path d="" fill="#FFFFFF" transform="translate(0,0)"/>
<path d="" fill="#FFFFFF" transform="translate(0,0)"/>
<path d="" fill="#FFFFFF" transform="translate(0,0)"/>
<path d="" fill="#FFFFFF" transform="translate(0,0)"/>
<path d="" fill="#FFFFFF" transform="translate(0,0)"/>
<path d="" fill="#FFFFFF" transform="translate(0,0)"/>
<path d="" fill="#FFFFFF" transform="translate(0,0)"/>
<path d="" fill="#FFFFFF" transform="translate(0,0)"/>
<path d="" fill="#FFFFFF" transform="translate(0,0)"/>
<path d="" fill="#FFFFFF" transform="translate(0,0)"/>
<path d="" fill="#FFFFFF" transform="translate(0,0)"/>
<path d="" fill="#FFFFFF" transform="translate(0,0)"/>
<path d="" fill="#FFFFFF" transform="translate(0,0)"/>
<path d="" fill="#FFFFFF" transform="translate(0,0)"/>
<path d="" fill="#FFFFFF" transform="translate(0,0)"/>
<path d="" fill="#FFFFFF" transform="translate(0,0)"/>
<path d="" fill="#FFFFFF" transform="translate(0,0)"/>
<path d="" fill="#FFFFFF" transform="translate(0,0)"/>
<path d="" fill="#D4D4D4" transform="translate(0,0)"/>
<path d="" fill="#FFFFFF" transform="translate(0,0)"/>
<path d="" fill="#FFFFFF" transform="translate(0,0)"/>
<path d="" fill="#FFFFFF" transform="translate(0,0)"/>
<path d="" fill="#FFFFFF" transform="translate(0,0)"/>
<path d="" fill="#FFFFFF" transform="translate(0,0)"/>
<path d="" fill="#FFFFFF" transform="translate(0,0)"/>
<path d="" fill="#FFFFFF" transform="translate(0,0)"/>
<path d="" fill="#FFFFFF" transform="translate(0,0)"/>
<path d="" fill="#FFFFFF" transform="translate(0,0)"/>
<path d="" fill="#FFFFFF" transform="translate(0,0)"/>
<path d="" fill="#FFFFFF" transform="translate(0,0)"/>
<path d="" fill="#FFFFFF" transform="translate(0,0)"/>
<path d="" fill="#FFFFFF" transform="translate(0,0)"/>
<path d="" fill="#FFFFFF" transform="translate(0,0)"/>
<path d="" fill="#FFFFFF" transform="translate(0,0)"/>
<path d="" fill="#FFFFFF" transform="translate(0,0)"/>
<path d="" fill="#FFFFFF" transform="translate(0,0)"/>
<path d="" fill="#FFFFFF" transform="translate(0,0)"/>
<path d="" fill="#FFFFFF" transform="translate(0,0)"/>
<path d="" fill="#FFFFFF" transform="translate(0,0)"/>
<path d="" fill="#FFFFFF" transform="translate(0,0)"/>
<path d="" fill="#FFFFFF" transform="translate(0,0)"/>
<path d="" fill="#FFFFFF" transform="translate(0,0)"/>
<path d="" fill="#FFFFFF" transform="translate(0,0)"/>
<path d="" fill="#FFFFFF" transform="translate(0,0)"/>
<path d="" fill="#FFFFFF" transform="translate(0,0)"/>
<path d="" fill="#AAAAAA" transform="translate(0,0)"/>
<path d="" fill="#AAAAAA" transform="translate(0,0)"/>
<path d="" fill="#FFFFFF" transform="translate(0,0)"/>
<path d="" fill="#AAAAAA" transform="translate(0,0)"/>
<path d="" fill="#FFFFFF" transform="translate(0,0)"/>
<path d="" fill="#FFFFFF" transform="translate(0,0)"/>
<path d="" fill="#FFFFFF" transform="translate(0,0)"/>
<path d="" fill="#FFFFFF" transform="translate(0,0)"/>
<path d="" fill="#FFFFFF" transform="translate(0,0)"/>
<path d="" fill="#FFFFFF" transform="translate(0,0)"/>
<path d="" fill="#FFFFFF" transform="translate(0,0)"/>
<path d="" fill="#FFFFFF" transform="translate(0,0)"/>
<path d="" fill="#FFAAAA" transform="translate(0,0)"/>
<path d="" fill="#FFFFFF" transform="translate(0,0)"/>
<path d="" fill="#FFFFFF" transform="translate(0,0)"/>
<path d="" fill="#FFFFFF" transform="translate(0,0)"/>
<path d="" fill="#FFFFFF" transform="translate(0,0)"/>
<path d="" fill="#FFFFFF" transform="translate(0,0)"/>
<path d="" fill="#AAAAAA" transform="translate(0,0)"/>
<path d="" fill="#FFFFFF" transform="translate(0,0)"/>
<path d="" fill="#FFFFFF" transform="translate(0,0)"/>
<path d="" fill="#FFFFFF" transform="translate(0,0)"/>
<path d="" fill="#FFFFFF" transform="translate(0,0)"/>
<path d="" fill="#FFFFFF" transform="translate(0,0)"/>
<path d="" fill="#FFFFFF" transform="translate(0,0)"/>
<path d="" fill="#FFFFFF" transform="translate(0,0)"/>
<path d="" fill="#FFFFFF" transform="translate(0,0)"/>
<path d="" fill="#FFFFFF" transform="translate(0,0)"/>
<path d="" fill="#FFFFFF" transform="translate(0,0)"/>
<path d="" fill="#FFFFFF" transform="translate(0,0)"/>
<path d="" fill="#FFFFFF" transform="translate(0,0)"/>
<path d="" fill="#CCCCCC" transform="translate(0,0)"/>
<path d="" fill="#FFFFFF" transform="translate(0,0)"/>
<path d="" fill="#FFFFFF" transform="translate(0,0)"/>
<path d="" fill="#FFFFFF" transform="translate(0,0)"/>
<path d="" fill="#FFFFFF" transform="translate(0,0)"/>
<path d="" fill="#FFFFFF" transform="translate(0,0)"/>
<path d="" fill="#FFFFFF" transform="translate(0,0)"/>
<path d="" fill="#FFFFFF" transform="translate(0,0)"/>
<path d="" fill="#FFFFFF" transform="translate(0,0)"/>
<path d="" fill="#FFFFFF" transform="translate(0,0)"/>
<path d="" fill="#FFFFFF" transform="translate(0,0)"/>
<path d="" fill="#FFFFFF" transform="translate(0,0)"/>
<path d="" fill="#FFFFFF" transform="translate(0,0)"/>
<path d="" fill="#FFFFFF" transform="translate(0,0)"/>
<path d="" fill="#FFFFFF" transform="translate(0,0)"/>
<path d="" fill="#FFFFFF" transform="translate(0,0)"/>
<path d="" fill="#FFFFFF" transform="translate(0,0)"/>
<path d="" fill="#FFFFFF" transform="translate(0,0)"/>
<path d="" fill="#FFFFFF" transform="translate(0,0)"/>
<path d="" fill="#FFFFFF" transform="translate(0,0)"/>
<path d="" fill="#FFFFFF" transform="translate(0,0)"/>
<path d="" fill="#FFFFFF" transform="translate(0,0)"/>
<path d="" fill="#AAAAAA" transform="translate(0,0)"/>
<path d="" fill="#FFFFFF" transform="translate(0,0)"/>
<path d="" fill="#FFFFFF" transform="translate(0,0)"/>
<path d="" fill="#FFFFFF" transform="translate(0,0)"/>
<path d="" fill="#FFFFFF" transform="translate(0,0)"/>
<path d="" fill="#FFFFFF" transform="translate(0,0)"/>
<path d="" fill="#FFFFFF" transform="translate(0,0)"/>
<path d="" fill="#FFFFFF" transform="translate(0,0)"/>
</svg>
